<svg width="36" height="23" viewBox="0 0 36 23" fill="none" xmlns="http://www.w3.org/2000/svg">
<path fill-rule="evenodd" clip-rule="evenodd" d="M20.6915 11.5156C19.0611 11.4181 17.818 10.0108 17.9109 8.37356C17.9884 7.01695 18.9565 5.92932 20.2113 5.64475C19.5219 5.37966 18.7784 5.23153 18 5.23153C14.565 5.23153 11.7689 8.0461 11.7689 11.5039C11.7689 14.9617 14.565 17.7763 18 17.7763C21.435 17.7763 24.2311 14.9617 24.2311 11.5039C24.2311 10.658 24.0607 9.85491 23.7586 9.11814C23.4798 10.5566 22.1824 11.6053 20.6876 11.5195L20.6915 11.5156Z" fill="#6D44BC"/>
<path fill-rule="evenodd" clip-rule="evenodd" d="M18 0C8.05895 0 0 11.5 0 11.5C0 11.5 8.05895 23 18 23C27.9411 23 36 11.5 36 11.5C36 11.5 27.9411 0 18 0ZM18 20.5597C13.0353 20.5597 9 16.4937 9 11.5C9 6.50627 13.0392 2.44034 18 2.44034C22.9608 2.44034 27 6.50627 27 11.5C27 16.4937 22.9608 20.5597 18 20.5597Z" fill="#6D44BC"/>
</svg>
