<svg width="95" height="96" viewBox="0 0 95 96" fill="none" xmlns="http://www.w3.org/2000/svg">
<path d="M58.9406 80.6753C58.9406 78.9195 58.9821 77.1706 58.9268 75.4251C58.8923 74.3238 59.0408 73.3541 59.8871 72.8173C59.1997 71.0892 58.5468 69.4476 57.8145 67.6017C57.1582 68.0139 56.4224 68.4779 55.6832 68.942C55.2376 69.2225 54.8162 69.5654 54.3395 69.7835C50.2945 71.619 46.2357 73.4234 42.1942 75.2589C41.4515 75.5948 40.7676 75.7576 40.1147 75.1377C39.4308 74.4866 39.5758 73.7766 39.9006 72.9836C40.9092 70.5039 40.2356 67.8546 38.2252 66.1714C36.3115 64.5714 33.5481 64.374 31.3823 65.6831C29.2544 66.9714 28.1801 69.5169 28.7155 72.0139C29.0437 73.5446 30.0627 74.6009 31.1785 75.5844C31.6241 75.9792 32.1111 76.3221 32.574 76.6961C33.7588 77.6554 33.631 79.0545 32.2458 79.7056C30.0938 80.7169 27.9141 81.6623 25.7449 82.6355C22.8363 83.9411 19.9278 85.2468 16.9329 86.5905C16.781 86.2822 16.6393 86.0121 16.515 85.7385C11.2506 73.9567 5.98629 62.1714 0.725398 50.3861C-0.784128 47.0026 0.0587199 44.7931 3.44047 43.2312C3.57865 43.1688 3.71336 43.0926 3.83081 43.0338C3.84463 42.9333 3.87571 42.8606 3.85499 42.8156C3.0156 41.1359 3.21249 39.4805 3.74445 37.7351C4.5873 34.9818 5.20562 32.1593 6.02429 29.3957C6.44571 27.9688 7.09166 26.6078 7.68926 25.0771C7.01221 24.4745 6.97076 23.4528 6.98112 22.4069C6.99494 20.7792 6.98458 19.1481 6.98458 17.548C6.80496 17.4649 6.72551 17.4026 6.64606 17.3957C4.56657 17.2675 4.52167 17.2121 4.49403 15.1377L5.02945 14.9714H38.6846L38.7123 15.7056C38.7261 16.7654 38.3841 17.0805 37.2995 17.1325C37.0231 17.1463 36.7502 17.1636 36.4221 17.1844C36.4221 19.013 36.3841 20.7965 36.4359 22.5801C36.467 23.6225 36.2563 24.5091 35.3582 25.1221C35.8798 26.1472 36.3841 27.1377 36.9402 28.2355C42.1044 26.0814 47.2858 23.9169 52.6158 21.69C50.6779 20.4502 49.3757 18.8537 48.7781 16.7238C48.1839 14.5905 48.443 12.5541 49.4828 10.6251C51.1546 7.52208 54.7298 5.8355 58.1392 6.53853C60.426 7.00952 62.2187 8.23203 63.483 10.213C64.7335 12.1697 64.654 14.3723 64.5746 16.6857C69.5315 14.6113 74.3709 12.5887 79.2864 10.5316C79.466 10.9091 79.6318 11.2312 79.77 11.5671C84.6406 23.2485 89.5042 34.9299 94.3713 46.6113C95.753 49.9255 94.8653 52.1212 91.5595 53.5758C91.4455 53.6242 91.3384 53.69 91.1416 53.7939C91.449 54.7948 91.791 55.7922 92.05 56.8104C92.1606 57.2433 92.2124 57.7489 92.1053 58.1714C91.1519 61.8736 90.202 65.5758 89.1519 69.2502C88.8134 70.4381 88.1778 71.5394 87.784 72.4398C88.0051 73.4996 88.3125 74.4 88.3608 75.3177C88.4507 77.0043 88.385 78.6978 88.385 80.2978M17.99 83.6779C22.2146 81.7801 26.339 79.9273 30.5463 78.0364C28.8641 76.5506 27.2406 75.1515 26.6292 72.987C26.0177 70.826 26.2803 68.7619 27.3546 66.8017C29.0713 63.6745 32.5567 62.0848 36.1216 62.7983C37.8314 63.1411 39.2891 63.9688 40.4498 65.2675C42.3186 67.3593 42.9023 69.8355 42.4015 72.6788C42.7987 72.516 43.0612 72.4225 43.3134 72.3082C46.6226 70.8225 49.9318 69.3403 53.241 67.8511C54.5433 67.2658 54.7644 66.6563 54.1668 65.316C52.5571 61.7108 50.9474 58.1091 49.3342 54.5074C48.1943 51.9619 48.8748 51.0407 51.6521 51.2346C53.4725 51.3628 55.3067 51.3628 56.8473 50.1299C58.7541 48.6061 59.4864 46.0571 58.6988 43.7714C57.9112 41.4822 55.773 39.9203 53.3516 39.8649C50.8887 39.8095 48.5846 41.3645 47.6727 43.7437C47.3687 44.5368 46.9611 45.174 46.0388 45.1844C45.1545 45.1948 44.7538 44.5853 44.4326 43.8372C42.6571 39.7264 40.8539 35.626 39.0612 31.5221C38.429 30.0779 38.2978 30.026 36.9022 30.6528C31.1681 33.2294 25.4374 35.813 19.6964 38.3723C18.9053 38.7255 18.2905 39.2 17.7205 39.8684C17.0159 40.6892 16.0901 41.316 15.3025 42.071C15.078 42.2857 14.8431 42.6736 14.8811 42.9437C15.1678 44.9593 15.4856 46.9749 15.8621 48.9766C16.3181 51.3974 16.4493 53.7628 15.192 56.0242C14.3733 57.4961 12.5598 58.4762 10.7601 58.2615C9.11588 58.0675 8.31448 56.9836 7.85506 55.4667C6.89131 52.2909 5.85157 49.1359 4.83601 45.974C4.75656 45.7247 4.63566 45.4857 4.53549 45.2467C2.2142 46.071 1.71333 47.2277 2.68053 49.3957C5.8723 56.5472 9.06406 63.6952 12.2558 70.8468C14.1453 75.0753 16.0314 79.3074 17.9796 83.671L17.99 83.6779ZM56.7126 65.7351C56.9648 65.6519 57.1409 65.6035 57.3102 65.5342C64.4606 62.5385 71.6144 59.5463 78.7579 56.5368C79.2415 56.3325 79.7147 56.0589 80.1189 55.7229C80.3227 55.5532 80.492 55.1619 80.454 54.9022C80.1673 52.9177 79.8495 50.9368 79.4937 48.9628C79.0999 46.7775 78.8581 44.6234 79.8149 42.5004C80.5161 40.942 81.7217 40.0381 83.3383 39.6814C85.2485 39.2589 86.7442 40.1628 87.3384 42.026C87.9774 44.0242 88.613 46.026 89.2555 48.0208C89.6355 49.1983 90.0258 50.3758 90.4127 51.5463C92.6096 50.9299 93.2348 49.6866 92.4093 47.7022C87.7632 36.5437 83.1103 25.3853 78.4574 14.2268C78.3503 13.974 78.2156 13.7316 78.0809 13.4615C77.6249 13.6519 77.2207 13.8182 76.82 13.9844C72.8683 15.6364 68.9201 17.2952 64.9614 18.9299C64.5435 19.103 64.0495 19.2589 63.6177 19.2069C62.6125 19.0892 62.1324 18.1957 62.2464 17.0113C62.4364 15.0442 62.6782 13.0459 61.5106 11.2589C60.1393 9.15325 57.5209 8.17662 55.096 8.82424C52.6193 9.48571 50.8368 11.671 50.7021 14.2061C50.5674 16.7861 52.032 19.0961 54.4535 20.0485C55.2583 20.3636 55.963 20.7169 55.9492 21.7247C55.9354 22.6736 55.2652 23.0476 54.5018 23.3593C51.089 24.7584 47.6796 26.168 44.2702 27.5775C42.9887 28.1074 41.7106 28.6476 40.474 29.1636C42.3531 33.3714 44.1873 37.4788 46.0388 41.6242C48.9439 37.7385 52.3395 36.4606 56.0494 37.8043C59.4622 39.0407 61.749 42.3065 61.3586 46.026C60.7576 51.7576 57.2031 54.1784 51.5277 53.8944C53.2894 57.9117 54.982 61.7766 56.7161 65.7351H56.7126ZM76.1534 60.1662C75.9047 60.1974 75.8079 60.1905 75.7285 60.2216C70.7647 62.2892 65.8008 64.3706 60.8301 66.4242C60.3085 66.639 60.2083 66.9472 60.2912 67.4355C60.571 69.1429 61.2032 70.6978 62.3742 71.9861C62.6125 72.2494 63.0512 72.471 63.3967 72.471C70.3812 72.4987 77.3658 72.4952 84.3469 72.4779C84.6233 72.4779 85.0413 72.374 85.1553 72.1801C85.7978 71.0753 86.5611 69.9913 86.9239 68.7896C87.9636 65.3403 88.8479 61.8459 89.7495 58.3584C89.8738 57.8771 89.8773 57.2952 89.7288 56.8242C88.2745 52.1905 86.7788 47.5706 85.2934 42.9472C84.948 41.8667 84.3193 41.5065 83.321 42.0017C82.7718 42.2753 82.2329 42.774 81.9289 43.3039C81.2899 44.4225 81.1932 45.6796 81.4039 46.9576C81.9117 50.019 82.4022 53.084 82.9341 56.142C83.0205 56.6476 82.8858 56.8554 82.4264 57.0493C80.5956 57.8182 79.245 59.1238 78.3365 60.8935C78.0014 61.5515 77.6456 62.1991 77.2829 62.8814C76.5782 62.5455 75.9668 62.2545 75.3209 61.9429C75.6041 61.3403 75.8528 60.8069 76.1534 60.1662ZM34.9954 29.0909C34.2908 27.9377 33.6932 26.8883 33.0161 25.8944C32.8676 25.6762 32.4324 25.5584 32.1284 25.555C30.4392 25.5411 28.7466 25.5861 27.0575 25.5965C21.7033 25.6381 16.3526 25.6658 10.9985 25.7247C10.6634 25.7281 10.166 25.8182 10.0244 26.0433C9.43022 26.9922 8.76354 27.955 8.45265 29.0078C7.41982 32.5229 6.5148 36.0762 5.59595 39.6225C5.48542 40.045 5.48542 40.561 5.61668 40.9732C7.0813 45.6346 8.58046 50.2823 10.0762 54.9368C10.4181 55.9965 10.9881 56.3498 11.9726 55.8823C12.5494 55.6087 13.1229 55.0996 13.4441 54.5455C14.0728 53.4649 14.1764 52.2286 13.9726 50.9853C13.4683 47.8926 12.9778 44.7965 12.4424 41.7074C12.3526 41.1913 12.4942 40.9835 12.9432 40.8C14.5253 40.1489 15.7309 39.0442 16.6773 37.6242C16.8673 37.3368 17.1989 37.0944 17.5167 36.9454C19.5582 36 21.617 35.0857 23.6723 34.1645C27.3476 32.516 31.0265 30.8675 34.9954 29.0874V29.0909ZM34.1664 23.3177C34.1664 21.5169 34.1181 19.8615 34.1871 18.2095C34.2217 17.3437 33.9108 17.174 33.1129 17.1844C28.3252 17.2571 23.5376 17.2745 18.7499 17.3126C15.8379 17.3368 12.9294 17.3506 10.0209 17.4061C9.73765 17.413 9.22642 17.69 9.21951 17.8563C9.16078 19.6952 9.18151 21.5342 9.18151 23.3143H34.163L34.1664 23.3177ZM61.2204 74.7186C61.2204 76.4918 61.2446 78.1472 61.2066 79.8026C61.1928 80.4606 61.4104 80.6753 62.0667 80.6684C69.8631 80.5922 77.656 80.5333 85.4523 80.4883C86.0948 80.4848 86.2468 80.232 86.2261 79.6433C86.1777 78.3584 86.1397 77.0701 86.1915 75.7853C86.2261 74.9333 85.9705 74.677 85.0931 74.684C77.4556 74.7255 69.8147 74.7151 62.1773 74.7186C61.8733 74.7186 61.5693 74.7186 61.2204 74.7186Z" fill="#6D44BC"/>
<path d="M27.4824 92.0866C26.7984 92.4433 26.2215 92.7481 25.51 93.1186C24.6671 91.484 23.8312 89.8667 22.9434 88.1455C23.5894 87.8026 24.1835 87.484 24.8951 87.1065C25.7483 88.7515 26.5877 90.3688 27.4824 92.0866Z" fill="#6D44BC"/>
<path d="M71.9944 2.84329C72.8683 4.54372 73.6836 6.12641 74.5506 7.81299C73.9081 8.15584 73.2932 8.48485 72.5989 8.85887C71.7284 7.17922 70.8994 5.57576 70.0255 3.88918L71.9944 2.84329Z" fill="#6D44BC"/>
<path d="M11.4095 88.2251C10.5425 89.9082 9.71693 91.5117 8.8499 93.1983C8.18667 92.8589 7.58563 92.5506 6.87404 92.1835C7.72725 90.5212 8.56319 88.897 9.43713 87.1965L11.4095 88.2251Z" fill="#6D44BC"/>
<path d="M88.6614 2.91255C89.3557 3.27619 89.9325 3.57749 90.6269 3.94113C89.7736 5.60346 88.9412 7.22424 88.0707 8.92467L86.0983 7.89264C86.9618 6.21299 87.7874 4.60952 88.6614 2.91255Z" fill="#6D44BC"/>
<path d="M81.2865 5.54113H79.1759V0H81.2865V5.54113Z" fill="#6D44BC"/>
<path d="M18.2041 96H16.0521V90.4935H18.2041V96Z" fill="#6D44BC"/>
<path d="M56.7161 65.7212C54.982 61.7628 53.2894 57.8978 51.5277 53.8805C57.2031 54.1645 60.7576 51.7472 61.3586 46.0121C61.749 42.2892 59.4588 39.0268 56.0494 37.7905C52.3429 36.4468 48.9473 37.7281 46.0388 41.6104C44.1873 37.4649 42.3531 33.3576 40.474 29.1498C41.7071 28.6338 42.9887 28.0935 44.2702 27.5636C47.6796 26.1541 51.089 24.7446 54.5019 23.3455C55.2653 23.0338 55.9354 22.6597 55.9492 21.7108C55.9665 20.703 55.2583 20.3498 54.4535 20.0346C52.032 19.0822 50.5674 16.7723 50.7021 14.1922C50.8334 11.6571 52.6193 9.47186 55.096 8.81039C57.5209 8.16277 60.1393 9.13939 61.5106 11.245C62.6782 13.0355 62.4329 15.0303 62.2464 16.9974C62.1324 18.1818 62.6125 19.0753 63.6177 19.1931C64.0495 19.2416 64.5435 19.0892 64.9615 18.916C68.9201 17.2814 72.8683 15.6225 76.82 13.9706C77.2207 13.8043 77.6249 13.6381 78.0809 13.4476C78.2156 13.7177 78.3503 13.9602 78.4574 14.213C83.1103 25.3714 87.7632 36.5264 92.4093 47.6883C93.2383 49.6762 92.6096 50.9195 90.4127 51.5325C90.0293 50.3619 89.6355 49.1879 89.2555 48.0069C88.613 46.0087 87.9774 44.0104 87.3384 42.0121C86.7408 40.1489 85.2485 39.2485 83.3383 39.6675C81.7217 40.0242 80.5196 40.9247 79.8149 42.4866C78.8581 44.6095 79.0999 46.7636 79.4937 48.9489C79.8495 50.9229 80.1673 52.9039 80.454 54.8883C80.492 55.1481 80.3262 55.5394 80.1189 55.7091C79.7148 56.0416 79.2415 56.3186 78.7579 56.5229C71.611 59.5325 64.4606 62.5247 57.3102 65.5203C57.1409 65.5896 56.9648 65.6381 56.7126 65.7212H56.7161Z" fill="#1B1629"/>
<path d="M58.1185 92.9835C56.9786 92.9835 56.0494 92.0519 56.0494 90.9091V82.0502C56.0494 80.9073 56.9786 79.9757 58.1185 79.9757H88.0569C90.0431 79.9757 91.6597 81.5965 91.6597 83.5879V90.9091C91.6597 92.0519 90.7305 92.9835 89.5906 92.9835H58.1185ZM58.1185 82.0502V90.9056H89.5906V83.5844C89.5906 82.7394 88.8997 82.0502 88.0569 82.0502H58.1185Z" fill="#6D44BC"/>
<path d="M37.4169 17.51H5.94484C4.80492 17.51 3.87572 16.5784 3.87572 15.4355V6.57662C3.87572 5.43377 4.80492 4.50216 5.94484 4.50216H35.8832C37.8694 4.50216 39.486 6.12294 39.486 8.11429V15.4355C39.486 16.5784 38.5568 17.51 37.4169 17.51ZM5.94484 15.4355H37.4169V8.11082C37.4135 7.2658 36.7261 6.57662 35.8832 6.57662H5.94484V15.4355Z" fill="#6D44BC"/>
</svg>
