<svg width="95" height="96" viewBox="0 0 95 96" fill="none" xmlns="http://www.w3.org/2000/svg">
<g clip-path="url(#clip0_1291_272)">
<path d="M58.9406 80.675C58.9406 78.9192 58.9821 77.1703 58.9268 75.4248C58.8923 74.3235 59.0408 73.3538 59.8871 72.817C59.1997 71.0889 58.5468 69.4473 57.8145 67.6015C57.1582 68.0136 56.4224 68.4776 55.6832 68.9417C55.2376 69.2222 54.8162 69.5651 54.3395 69.7833C50.2945 71.6188 46.2357 73.4231 42.1942 75.2586C41.4515 75.5945 40.7676 75.7573 40.1147 75.1374C39.4308 74.4863 39.5758 73.7764 39.9006 72.9833C40.9092 70.5036 40.2356 67.8543 38.2252 66.1712C36.3115 64.5712 33.5481 64.3738 31.3823 65.6828C29.2544 66.9712 28.1801 69.5166 28.7155 72.0136C29.0437 73.5443 30.0627 74.6006 31.1785 75.5841C31.6241 75.9789 32.1111 76.3218 32.574 76.6958C33.7588 77.6551 33.631 79.0543 32.2458 79.7054C30.0938 80.7166 27.9141 81.6621 25.7449 82.6352C22.8363 83.9408 19.9278 85.2465 16.9329 86.5902C16.781 86.282 16.6393 86.0118 16.515 85.7383C11.2506 73.9564 5.98629 62.1712 0.725398 50.3859C-0.784128 47.0023 0.0587199 44.7928 3.44047 43.2309C3.57865 43.1686 3.71336 43.0924 3.83081 43.0335C3.84463 42.9331 3.87571 42.8603 3.85499 42.8153C3.0156 41.1357 3.21249 39.4802 3.74445 37.7348C4.5873 34.9815 5.20562 32.159 6.02429 29.3954C6.44571 27.9686 7.09166 26.6075 7.68926 25.0768C7.01221 24.4742 6.97076 23.4525 6.98112 22.4067C6.99494 20.7789 6.98458 19.1478 6.98458 17.5478C6.80496 17.4647 6.72551 17.4023 6.64606 17.3954C4.56657 17.2673 4.52167 17.2118 4.49403 15.1374L5.02945 14.9712H38.6846L38.7123 15.7054C38.7261 16.7651 38.3841 17.0802 37.2995 17.1322C37.0231 17.146 36.7502 17.1634 36.4221 17.1841C36.4221 19.0127 36.3841 20.7963 36.4359 22.5798C36.467 23.6222 36.2563 24.5088 35.3582 25.1218C35.8798 26.1469 36.3841 27.1374 36.9402 28.2352C42.1044 26.0811 47.2858 23.9166 52.6158 21.6898C50.6779 20.4499 49.3757 18.8534 48.7781 16.7235C48.1839 14.5902 48.443 12.5538 49.4828 10.6248C51.1546 7.5218 54.7298 5.83522 58.1392 6.53825C60.426 7.00925 62.2187 8.23176 63.483 10.2127C64.7335 12.1694 64.654 14.372 64.5746 16.6854C69.5315 14.611 74.3709 12.5885 79.2864 10.5313C79.466 10.9088 79.6318 11.2309 79.77 11.5668C84.6406 23.2482 89.5042 34.9296 94.3713 46.611C95.753 49.9253 94.8653 52.1209 91.5595 53.5755C91.4455 53.624 91.3384 53.6898 91.1416 53.7937C91.449 54.7945 91.791 55.7919 92.05 56.8101C92.1606 57.243 92.2124 57.7486 92.1053 58.1712C91.1519 61.8733 90.202 65.5755 89.1519 69.2499C88.8134 70.4378 88.1778 71.5391 87.784 72.4396C88.0051 73.4993 88.3125 74.3997 88.3608 75.3175C88.4507 77.0041 88.385 78.6976 88.385 80.2976M17.99 83.6776C22.2146 81.7798 26.339 79.927 30.5463 78.0361C28.8641 76.5504 27.2406 75.1512 26.6292 72.9867C26.0177 70.8257 26.2803 68.7616 27.3546 66.8015C29.0713 63.6742 32.5567 62.0846 36.1216 62.798C37.8314 63.1409 39.2891 63.9686 40.4498 65.2673C42.3186 67.359 42.9023 69.8352 42.4015 72.6785C42.7987 72.5157 43.0612 72.4222 43.3134 72.3079C46.6226 70.8222 49.9318 69.34 53.241 67.8508C54.5433 67.2655 54.7644 66.656 54.1668 65.3157C52.5571 61.7105 50.9474 58.1088 49.3342 54.5071C48.1943 51.9616 48.8748 51.0404 51.6521 51.2344C53.4725 51.3625 55.3067 51.3625 56.8473 50.1296C58.7541 48.6058 59.4864 46.0569 58.6988 43.7712C57.9112 41.482 55.773 39.9201 53.3516 39.8647C50.8887 39.8092 48.5846 41.3642 47.6727 43.7434C47.3687 44.5365 46.9611 45.1737 46.0388 45.1841C45.1545 45.1945 44.7538 44.585 44.4326 43.837C42.6571 39.7261 40.8539 35.6257 39.0612 31.5218C38.429 30.0776 38.2978 30.0257 36.9022 30.6525C31.1681 33.2292 25.4374 35.8127 19.6964 38.372C18.9053 38.7253 18.2905 39.1997 17.7205 39.8681C17.0159 40.6889 16.0901 41.3157 15.3025 42.0707C15.078 42.2854 14.8431 42.6733 14.8811 42.9434C15.1678 44.959 15.4856 46.9746 15.8621 48.9763C16.3181 51.3971 16.4493 53.7625 15.192 56.024C14.3733 57.4958 12.5598 58.4759 10.7601 58.2612C9.11588 58.0673 8.31448 56.9833 7.85506 55.4664C6.89131 52.2906 5.85157 49.1357 4.83601 45.9737C4.75656 45.7244 4.63566 45.4854 4.53549 45.2465C2.2142 46.0707 1.71333 47.2274 2.68053 49.3954C5.8723 56.5469 9.06406 63.695 12.2558 70.8465C14.1453 75.0751 16.0314 79.3071 17.9796 83.6707L17.99 83.6776ZM56.7126 65.7348C56.9648 65.6517 57.1409 65.6032 57.3102 65.5339C64.4606 62.5382 71.6144 59.546 78.7579 56.5365C79.2415 56.3322 79.7147 56.0586 80.1189 55.7227C80.3227 55.553 80.492 55.1616 80.454 54.9019C80.1673 52.9175 79.8495 50.9365 79.4937 48.9625C79.0999 46.7772 78.8581 44.6231 79.8149 42.5002C80.5161 40.9417 81.7217 40.0378 83.3383 39.6811C85.2485 39.2586 86.7442 40.1625 87.3384 42.0257C87.9774 44.024 88.613 46.0257 89.2555 48.0205C89.6355 49.198 90.0258 50.3755 90.4127 51.546C92.6096 50.9296 93.2348 49.6863 92.4093 47.7019C87.7633 36.5434 83.1103 25.385 78.4574 14.2266C78.3503 13.9738 78.2156 13.7313 78.0809 13.4612C77.6249 13.6517 77.2207 13.8179 76.82 13.9841C72.8683 15.6361 68.9201 17.295 64.9614 18.9296C64.5435 19.1028 64.0495 19.2586 63.6177 19.2067C62.6125 19.0889 62.1324 18.1954 62.2464 17.011C62.4364 15.0439 62.6782 13.0456 61.5106 11.2586C60.1393 9.15297 57.5209 8.17635 55.096 8.82397C52.6193 9.48544 50.8368 11.6707 50.7021 14.2058C50.5674 16.7859 52.032 19.0958 54.4535 20.0482C55.2583 20.3634 55.963 20.7166 55.9492 21.7244C55.9354 22.6733 55.2652 23.0473 54.5018 23.359C51.089 24.7582 47.6796 26.1677 44.2702 27.5772C42.9887 28.1071 41.7106 28.6473 40.474 29.1634C42.3531 33.3712 44.1873 37.4785 46.0388 41.624C48.9439 37.7383 52.3395 36.4603 56.0494 37.8041C59.4622 39.0404 61.749 42.3062 61.3586 46.0257C60.7576 51.7573 57.2031 54.1781 51.5277 53.8941C53.2894 57.9114 54.982 61.7763 56.7161 65.7348H56.7126ZM76.1534 60.166C75.9047 60.1971 75.8079 60.1902 75.7285 60.2214C70.7647 62.2889 65.8008 64.3703 60.8301 66.424C60.3085 66.6387 60.2083 66.9469 60.2912 67.4352C60.571 69.1426 61.2032 70.6976 62.3742 71.9859C62.6125 72.2491 63.0512 72.4707 63.3967 72.4707C70.3812 72.4984 77.3658 72.495 84.3469 72.4776C84.6233 72.4776 85.0413 72.3737 85.1553 72.1798C85.7978 71.0751 86.5611 69.9911 86.9239 68.7893C87.9636 65.34 88.8479 61.8456 89.7495 58.3582C89.8738 57.8768 89.8773 57.295 89.7288 56.824C88.2745 52.1902 86.7788 47.5703 85.2934 42.9469C84.948 41.8664 84.3193 41.5062 83.321 42.0015C82.7718 42.275 82.2329 42.7738 81.9289 43.3036C81.2899 44.4222 81.1932 45.6794 81.4039 46.9573C81.9117 50.0188 82.4022 53.0837 82.9341 56.1417C83.0205 56.6473 82.8858 56.8551 82.4264 57.0491C80.5956 57.8179 79.245 59.1235 78.3365 60.8932C78.0014 61.5512 77.6456 62.1989 77.2829 62.8811C76.5782 62.5452 75.9668 62.2543 75.3209 61.9426C75.6041 61.34 75.8528 60.8066 76.1534 60.166ZM34.9954 29.0906C34.2908 27.9374 33.6932 26.888 33.0161 25.8941C32.8676 25.6759 32.4324 25.5582 32.1284 25.5547C30.4392 25.5409 28.7466 25.5859 27.0575 25.5963C21.7033 25.6378 16.3526 25.6655 10.9985 25.7244C10.6634 25.7279 10.166 25.8179 10.0244 26.043C9.43022 26.9919 8.76354 27.9547 8.45265 29.0075C7.41982 32.5227 6.5148 36.0759 5.59595 39.6222C5.48542 40.0447 5.48542 40.5608 5.61668 40.9729C7.0813 45.6344 8.58046 50.282 10.0762 54.9365C10.4181 55.9963 10.9881 56.3495 11.9726 55.882C12.5494 55.6084 13.1229 55.0993 13.4441 54.5452C14.0728 53.4647 14.1764 52.2283 13.9726 50.985C13.4683 47.8924 12.9778 44.7963 12.4424 41.7071C12.3526 41.1911 12.4942 40.9833 12.9432 40.7997C14.5253 40.1486 15.7309 39.0439 16.6773 37.624C16.8673 37.3365 17.1989 37.0941 17.5167 36.9452C19.5582 35.9997 21.617 35.0854 23.6723 34.1642C27.3476 32.5157 31.0265 30.8673 34.9954 29.0872V29.0906ZM34.1664 23.3175C34.1664 21.5166 34.1181 19.8612 34.1871 18.2092C34.2217 17.3434 33.9108 17.1738 33.1129 17.1841C28.3252 17.2569 23.5376 17.2742 18.7499 17.3123C15.8379 17.3365 12.9294 17.3504 10.0209 17.4058C9.73765 17.4127 9.22642 17.6898 9.21951 17.856C9.16078 19.695 9.18151 21.5339 9.18151 23.314H34.163L34.1664 23.3175ZM61.2204 74.7183C61.2204 76.4915 61.2446 78.1469 61.2066 79.8023C61.1928 80.4603 61.4104 80.675 62.0667 80.6681C69.8631 80.5919 77.656 80.5331 85.4523 80.488C86.0948 80.4846 86.2468 80.2318 86.2261 79.643C86.1777 78.3582 86.1397 77.0699 86.1915 75.785C86.2261 74.9331 85.9705 74.6768 85.0931 74.6837C77.4556 74.7253 69.8147 74.7149 62.1773 74.7183C61.8733 74.7183 61.5693 74.7183 61.2204 74.7183Z" fill="white"/>
<path d="M27.4824 92.0865C26.7984 92.4432 26.2215 92.748 25.51 93.1186C24.6671 91.4839 23.8312 89.8666 22.9434 88.1454C23.5894 87.8025 24.1835 87.4839 24.8951 87.1064C25.7483 88.7515 26.5877 90.3688 27.4824 92.0865Z" fill="white"/>
<path d="M71.9944 2.84375C72.8683 4.54418 73.6836 6.12687 74.5506 7.81345C73.9081 8.1563 73.2932 8.48531 72.5989 8.85933C71.7284 7.17968 70.8994 5.57622 70.0255 3.88964L71.9944 2.84375Z" fill="white"/>
<path d="M11.4095 88.2249C10.5425 89.908 9.71691 91.5114 8.84988 93.198C8.18666 92.8586 7.58561 92.5504 6.87402 92.1833C7.72723 90.521 8.56317 88.8967 9.43711 87.1963L11.4095 88.2249Z" fill="white"/>
<path d="M88.6614 2.91211C89.3557 3.27575 89.9325 3.57704 90.6268 3.94068C89.7736 5.60302 88.9412 7.2238 88.0707 8.92423L86.0983 7.8922C86.9618 6.21254 87.7874 4.60908 88.6614 2.91211Z" fill="white"/>
<path d="M81.2864 5.54113H79.1759V0H81.2864V5.54113Z" fill="white"/>
<path d="M18.2041 95.9997H16.0521V90.4932H18.2041V95.9997Z" fill="white"/>
<path d="M56.7161 65.7209C54.982 61.7625 53.2894 57.8975 51.5277 53.8802C57.2031 54.1642 60.7576 51.7469 61.3586 46.0118C61.749 42.2889 59.4588 39.0265 56.0494 37.7902C52.3429 36.4464 48.9474 37.7278 46.0388 41.6101C44.1873 37.4646 42.3531 33.3573 40.474 29.1495C41.7072 28.6335 42.9887 28.0932 44.2702 27.5633C47.6796 26.1538 51.089 24.7443 54.5019 23.3451C55.2653 23.0335 55.9354 22.6594 55.9492 21.7105C55.9665 20.7027 55.2583 20.3495 54.4535 20.0343C52.032 19.0819 50.5674 16.772 50.7021 14.1919C50.8334 11.6568 52.6193 9.47156 55.096 8.81008C57.5209 8.16246 60.1393 9.13909 61.5106 11.2447C62.6782 13.0352 62.4329 15.03 62.2464 16.9971C62.1324 18.1815 62.6125 19.075 63.6177 19.1928C64.0495 19.2413 64.5435 19.0889 64.9615 18.9157C68.9201 17.2811 72.8683 15.6222 76.8201 13.9703C77.2207 13.804 77.6249 13.6378 78.0809 13.4473C78.2156 13.7174 78.3503 13.9599 78.4574 14.2127C83.1103 25.3711 87.7633 36.5261 92.4093 47.688C93.2383 49.6759 92.6096 50.9192 90.4127 51.5322C90.0293 50.3616 89.6355 49.1876 89.2555 48.0066C88.613 46.0084 87.9774 44.0101 87.3384 42.0118C86.7408 40.1486 85.2485 39.2482 83.3383 39.6672C81.7217 40.0239 80.5196 40.9244 79.8149 42.4863C78.8581 44.6092 79.0999 46.7633 79.4937 48.9486C79.8495 50.9226 80.1673 52.9036 80.454 54.888C80.492 55.1477 80.3262 55.5391 80.1189 55.7088C79.7148 56.0413 79.2415 56.3183 78.7579 56.5226C71.611 59.5322 64.4606 62.5244 57.3102 65.52C57.1409 65.5893 56.9648 65.6378 56.7126 65.7209H56.7161Z" fill="#6D44BC"/>
<path d="M89.5871 92.9834H58.1185C56.9786 92.9834 56.0494 92.0518 56.0494 90.9089V82.05C56.0494 80.9072 56.9786 79.9756 58.1185 79.9756H88.0569C90.0431 79.9756 91.6597 81.5964 91.6597 83.5877V90.9089C91.6597 92.0518 90.7305 92.9834 89.5906 92.9834H89.5871ZM58.1185 82.05V90.9055H89.5906V83.5842C89.5906 82.7392 88.8997 82.05 88.0569 82.05H58.1185Z" fill="white"/>
<path d="M37.4169 17.5097H5.94485C4.80494 17.5097 3.87573 16.5781 3.87573 15.4353V6.57641C3.87573 5.43355 4.80494 4.50195 5.94485 4.50195H35.8832C37.8694 4.50195 39.4861 6.12273 39.4861 8.11407V15.4353C39.4861 16.5781 38.5569 17.5097 37.4169 17.5097ZM5.94485 6.57987V15.4353H37.4169V8.11061C37.4135 7.26559 36.7261 6.57641 35.8832 6.57641H5.94485V6.57987Z" fill="white"/>
</g>
<defs>
<clipPath id="clip0_1291_272">
<rect width="95" height="96" fill="white"/>
</clipPath>
</defs>
</svg>
