<svg width="82" height="82" viewBox="0 0 82 82" fill="none" xmlns="http://www.w3.org/2000/svg">
<g clip-path="url(#clip0_1291_255)">
<path d="M55.3375 9.82129L72.3318 26.8155L59.7025 40.8148L42.4091 22.6171L55.3375 9.82129Z" fill="#1B1629"/>
<path d="M26.829 36.9531L43.8233 53.9474L28.3078 71.149L26.965 46.1488L26.829 36.9531Z" fill="#1B1629"/>
<path d="M0 69.0274C0 46.0364 0 23.0488 0 0H27.7061C28.6002 0.499731 28.845 1.27142 28.8416 2.26409C28.8178 12.0853 28.828 21.91 28.828 31.7312V32.7374C29.1781 32.4043 29.4093 32.1969 29.6269 31.9794C37.4968 24.1094 45.3667 16.2395 53.24 8.36964C54.6644 6.94523 55.2525 6.94863 56.6973 8.39343C62.3609 14.057 68.0211 19.7173 73.6848 25.3809C75.0344 26.7305 75.0276 27.3594 73.6678 28.7226C65.7775 36.6129 57.8906 44.4998 50.0002 52.3901C49.7861 52.6043 49.5855 52.8321 49.2761 53.1652H50.2994C60.1206 53.1652 69.9453 53.1652 79.7665 53.1652C81.5003 53.1652 82 53.6717 82 55.4157C82 63.476 82 71.5363 82 79.5965C82 81.5513 81.5547 81.9932 79.5897 81.9932C58.0775 81.9932 36.5619 81.9932 15.0497 81.9932C14.5432 81.9932 14.0332 82.0068 13.5301 81.9592C7.48576 81.3575 3.24655 78.2843 0.965466 72.6377C0.50313 71.4921 0.316156 70.2308 0 69.024L0 69.0274ZM3.23975 40.3048H25.561V23.4261H3.23975V40.3048ZM58.5807 56.4322C58.4447 56.405 58.3665 56.3812 58.2917 56.3812C54.3448 56.3812 50.3946 56.371 46.4477 56.3914C46.1724 56.3914 45.8426 56.5715 45.6353 56.7687C44.4454 57.9178 43.2658 59.077 42.1337 60.2838C41.8618 60.5728 41.6578 61.0555 41.6578 61.4499C41.6272 66.9707 41.6374 72.4949 41.6374 78.0158V78.7535H58.5807V56.4322ZM3.26015 43.5989V59.5155H25.5814V43.5989H3.26015ZM70.6592 27.0432C65.4171 21.8046 60.175 16.5591 54.9874 11.3714C51.2717 15.0803 47.522 18.8232 43.8607 22.4777C49.0722 27.6892 54.3278 32.9448 59.5529 38.1665C63.2142 34.4984 66.9469 30.7623 70.6592 27.0432ZM57.0407 40.6923C51.7884 35.4401 46.5327 30.1878 41.3689 25.0205C37.6804 28.7056 33.9375 32.4519 30.2864 36.103C35.4809 41.2975 40.7331 46.5497 45.9582 51.7714C49.6297 48.1033 53.3624 44.3706 57.0441 40.6889L57.0407 40.6923ZM25.5678 20.1422V3.24315H3.25335V6.40811C3.5899 6.40811 3.87886 6.40811 4.16782 6.40811C7.37018 6.40811 10.5725 6.40811 13.7749 6.41151C14.1454 6.41151 14.5296 6.41831 14.8797 6.52029C15.6038 6.72766 15.9914 7.27499 15.9914 8.00929C15.9914 8.74358 15.6038 9.28411 14.8797 9.49828C14.5534 9.59347 14.1964 9.60367 13.8531 9.60706C10.5963 9.61386 7.34298 9.61046 4.08623 9.61046H3.24655V20.1422H25.5678ZM78.7399 78.7569V56.4118H75.5953V57.3092C75.5953 60.5388 75.5953 63.7683 75.5953 66.9979C75.5953 67.2902 75.5953 67.5894 75.5409 67.875C75.3879 68.6297 74.7488 69.16 74.0213 69.1736C73.27 69.1872 72.5935 68.6297 72.4439 67.8444C72.3895 67.5588 72.3963 67.2597 72.3963 66.9673C72.3963 63.7377 72.3963 60.5082 72.3963 57.2786V56.4322H61.8646V78.7569H78.7433H78.7399ZM3.34174 62.8097C3.34174 64.9922 3.15136 67.1135 3.38253 69.1906C3.87886 73.661 7.26479 77.3256 11.6468 78.4475C15.9914 79.5591 20.6147 77.8968 23.3412 74.3817C26.0574 70.8801 25.6494 66.8449 25.5882 62.8131H3.34174V62.8097ZM43.3542 54.2905C38.5438 49.4733 33.6791 44.6018 28.862 39.7813V68.786C33.7437 63.9043 38.6186 59.0294 43.3542 54.2905ZM38.3909 64.0233C33.4548 69.0002 28.6104 73.8853 23.8035 78.7331H38.3909V64.0233Z" fill="white"/>
<path d="M14.0876 76.4385C14.0604 76.4385 14.0332 76.4385 14.0061 76.4385C10.9669 76.3944 8.51581 73.8957 8.54301 70.8667C8.57021 67.8377 11.0485 65.3799 14.0706 65.3799H14.091C17.1268 65.3935 19.5983 67.8683 19.6051 70.9041C19.6051 72.3829 19.017 73.7801 17.9461 74.8408C16.8956 75.8776 15.529 76.4419 14.0876 76.4419V76.4385ZM14.0706 68.4361C12.7448 68.4361 11.6162 69.5579 11.6026 70.8939C11.589 72.2231 12.7108 73.3586 14.0502 73.379C14.6928 73.396 15.3149 73.1342 15.7976 72.6583C16.2803 72.1823 16.5455 71.5568 16.5455 70.9041C16.5455 69.5715 15.4135 68.4395 14.0808 68.4361H14.0706Z" fill="white"/>
</g>
<defs>
<clipPath id="clip0_1291_255">
<rect width="82" height="82" fill="white"/>
</clipPath>
</defs>
</svg>
