<svg width="97" height="97" viewBox="0 0 97 97" fill="none" xmlns="http://www.w3.org/2000/svg">
<g clip-path="url(#clip0_1291_502)">
<path d="M53.8107 27.6924H7.81784V63.014H53.8107V27.6924Z" fill="#1A1A1A"/>
<path d="M58.1988 77.6022H56.9078C39.8039 77.6022 22.6944 77.6022 5.5904 77.6022C1.88925 77.6022 -0.00564575 75.7129 -0.00564575 72.0173C-0.000105111 49.8602 -0.000105111 27.7032 -0.000105111 5.54618C-0.000105111 1.90044 1.89479 0 5.52945 0C34.1856 0 62.8418 0 91.4925 0C95.0662 0 96.9999 1.91706 96.9999 5.46861C96.9999 33.0776 96.9999 60.6922 96.9999 88.3012C96.9999 93.6257 93.6201 96.9945 88.29 97C81.1537 97 74.0118 97 66.8754 97C61.6063 97 58.2043 93.6147 58.2043 88.3677C58.2043 84.8328 58.2043 81.2978 58.2043 77.5967L58.1988 77.6022ZM93.6921 37.1722V16.2452H3.23563V17.3311C3.23563 35.5488 3.23563 53.7664 3.23563 71.984C3.23563 73.9177 3.68442 74.3665 5.60148 74.3665C22.7442 74.3665 39.8814 74.3665 57.0242 74.3665H58.2043V73.0866C58.2043 63.6564 58.3595 54.2263 58.1434 44.8016C58.0159 39.1834 61.9443 35.3327 67.3852 35.5155C73.912 35.7371 80.45 35.5931 86.9824 35.5543C89.3316 35.5377 91.6255 35.6097 93.6977 37.1722H93.6921ZM93.6921 84.0294V48.5859H61.4844V84.0294H93.6921ZM3.24117 12.8709H93.7697C93.7697 10.4552 93.7697 8.10596 93.7697 5.75673C93.7697 3.62912 93.3708 3.23573 91.2376 3.23573C62.7532 3.23573 34.2688 3.23573 5.78986 3.23573C5.48513 3.23573 5.18039 3.21911 4.8812 3.24127C3.91159 3.30776 3.26887 3.87291 3.25779 4.8259C3.22455 7.47987 3.24671 10.1394 3.24671 12.8709H3.24117ZM61.3736 45.195H93.7642C93.7642 44.5855 93.7808 44.0481 93.7642 43.5162C93.6644 40.9232 91.6199 38.8288 89.0214 38.8177C81.4085 38.7845 73.7957 38.79 66.1884 38.8177C63.9611 38.8233 62.0939 40.3525 61.6118 42.5244C61.4234 43.3611 61.4567 44.2531 61.3791 45.195H61.3736ZM61.4955 87.3371C60.9082 91.6754 63.7283 93.8972 67.2965 93.8141C74.3331 93.6479 81.3753 93.7698 88.4119 93.7643C92.1463 93.7643 94.357 91.0549 93.6367 87.3371H61.4955Z" fill="white"/>
<path d="M30.7173 64.6644C23.4092 64.6644 16.1011 64.6644 8.79301 64.6644C6.9369 64.6644 6.46594 64.1934 6.46594 62.3429C6.46594 50.9568 6.46594 39.5764 6.46594 28.1904C6.46594 26.3342 6.93136 25.8633 8.78747 25.8633C23.4037 25.8633 38.0199 25.8633 52.6361 25.8633C54.4922 25.8633 54.9632 26.3287 54.9632 28.1848C54.9632 39.5708 54.9632 50.9513 54.9632 62.3373C54.9632 64.1934 54.4922 64.6644 52.6416 64.6644C45.3335 64.6644 38.0254 64.6644 30.7173 64.6644ZM35.9089 52.7742C36.1527 52.4417 36.3522 52.1813 36.5405 51.9098C37.7595 50.1756 38.9729 48.4359 40.1863 46.7016C41.5604 44.7402 42.5078 44.7513 43.904 46.746C46.2754 50.1368 48.6524 53.5277 51.0293 56.913C51.2066 57.1624 51.4116 57.3951 51.6554 57.7053V29.1489H9.79033V57.251C10.1117 56.7468 10.3111 56.4365 10.5051 56.1207C14.5331 49.677 18.5612 43.2276 22.5947 36.7839C23.5699 35.227 24.9163 35.227 25.897 36.7617C26.44 37.6094 26.9663 38.4738 27.5038 39.327C30.2852 43.7706 33.0666 48.2198 35.9089 52.7686V52.7742ZM37.4935 61.412C33.061 54.3255 28.695 47.3499 24.2514 40.2412C19.7912 47.3776 15.4362 54.3422 11.0148 61.412H37.4991H37.4935ZM50.2481 61.4287C47.439 57.4228 44.7739 53.6163 42.0369 49.6991C40.6295 51.7104 39.3109 53.5665 38.0365 55.4558C37.9202 55.6331 37.97 56.0376 38.0975 56.2426C39.0504 57.8272 40.0256 59.3897 41.0229 60.9466C41.1614 61.1627 41.4662 61.4065 41.6933 61.412C44.4692 61.4453 47.2506 61.4342 50.2481 61.4342V61.4287Z" fill="white"/>
<path d="M74.4884 79.2088C73.2195 79.2088 72.5325 78.1838 72.8926 76.915C74.0119 72.9368 75.1532 68.9642 76.2891 64.986C77.2476 61.6228 78.2117 58.2652 79.1813 54.9076C79.5359 53.6886 80.3393 53.1346 81.2756 53.4172C82.2453 53.7108 82.6165 54.5696 82.2674 55.7941C80.1841 63.0967 78.0898 70.3937 76.0176 77.7018C75.7682 78.5717 75.3139 79.1313 74.4939 79.2033L74.4884 79.2088Z" fill="white"/>
<path d="M88.2901 66.2998C86.6335 64.6542 85.0821 63.1139 83.5362 61.5736C83.298 61.3354 83.0431 61.1082 82.8437 60.8423C82.3062 60.1275 82.3284 59.4017 82.9268 58.7313C83.5085 58.083 84.4394 57.9778 85.0987 58.6149C87.3482 60.7924 89.5589 63.0031 91.7364 65.2526C92.3902 65.9286 92.296 66.7763 91.6477 67.4356C89.5257 69.5965 87.387 71.7407 85.2261 73.8628C84.4948 74.5775 83.5141 74.5387 82.8824 73.8739C82.2563 73.2145 82.273 72.2726 83.0043 71.5302C84.7109 69.807 86.4451 68.1171 88.2846 66.2998H88.2901Z" fill="white"/>
<path d="M66.9198 66.2719C68.6651 68.0061 70.3163 69.624 71.9286 71.2806C72.2666 71.6241 72.6932 72.1339 72.6544 72.5273C72.6045 73.0813 72.2776 73.7517 71.851 74.1008C71.1917 74.6382 70.4437 74.3446 69.8619 73.7684C68.0723 71.9898 66.2938 70.2057 64.5152 68.4216C62.5095 66.4159 62.5095 66.15 64.5152 64.1443C66.2716 62.3879 68.0224 60.6204 69.7954 58.8696C70.6376 58.0329 71.5906 57.9886 72.2832 58.6978C72.9647 59.4015 72.8982 60.3323 72.0505 61.1856C70.3938 62.8533 68.715 64.4989 66.9198 66.2719Z" fill="white"/>
<path d="M42.8846 6.23828H6.46594V9.60145H42.8846V6.23828Z" fill="white"/>
</g>
<defs>
<clipPath id="clip0_1291_502">
<rect width="97" height="97" fill="white"/>
</clipPath>
</defs>
</svg>
