<svg width="97" height="97" viewBox="0 0 97 97" fill="none" xmlns="http://www.w3.org/2000/svg">
<path d="M53.8107 27.6921H7.81782V63.0137H53.8107V27.6921Z" fill="#1A1A1A"/>
<path d="M58.1988 77.6022H56.9078C39.8038 77.6022 22.6943 77.6022 5.59037 77.6022C1.88922 77.6022 -0.00567627 75.7129 -0.00567627 72.0173C-0.000135629 49.8602 -0.000135629 27.7032 -0.000135629 5.54618C-0.000135629 1.90044 1.89476 0 5.52942 0C34.1856 0 62.8418 0 91.4925 0C95.0662 0 96.9999 1.91706 96.9999 5.46861C96.9999 33.0776 96.9999 60.6922 96.9999 88.3012C96.9999 93.6257 93.6201 96.9945 88.29 97C81.1536 97 74.0117 97 66.8754 97C61.6062 97 58.2043 93.6147 58.2043 88.3677C58.2043 84.8328 58.2043 81.2978 58.2043 77.5967L58.1988 77.6022ZM93.6921 37.1722V16.2452H3.2356V17.3311C3.2356 35.5488 3.2356 53.7664 3.2356 71.984C3.2356 73.9177 3.68439 74.3665 5.60145 74.3665C22.7442 74.3665 39.8814 74.3665 57.0241 74.3665H58.2043V73.0866C58.2043 63.6564 58.3594 54.2263 58.1434 44.8016C58.0159 39.1834 61.9442 35.3327 67.3851 35.5155C73.912 35.7371 80.45 35.5931 86.9824 35.5543C89.3316 35.5377 91.6254 35.6097 93.6976 37.1722H93.6921ZM93.6921 84.0294V48.5859H61.4844V84.0294H93.6921ZM3.24114 12.8709H93.7697C93.7697 10.4552 93.7697 8.10596 93.7697 5.75673C93.7697 3.62912 93.3707 3.23573 91.2376 3.23573C62.7532 3.23573 34.2687 3.23573 5.78983 3.23573C5.4851 3.23573 5.18036 3.21911 4.88117 3.24127C3.91156 3.30776 3.26884 3.87291 3.25776 4.8259C3.22452 7.47987 3.24668 10.1394 3.24668 12.8709H3.24114ZM61.3735 45.195H93.7641C93.7641 44.5855 93.7807 44.0481 93.7641 43.5162C93.6644 40.9232 91.6199 38.8288 89.0213 38.8177C81.4085 38.7845 73.7957 38.79 66.1884 38.8177C63.961 38.8233 62.0938 40.3525 61.6118 42.5244C61.4234 43.3611 61.4567 44.2531 61.3791 45.195H61.3735ZM61.4954 87.3371C60.9081 91.6754 63.7283 93.8972 67.2965 93.8141C74.3331 93.6479 81.3753 93.7698 88.4119 93.7643C92.1463 93.7643 94.357 91.0549 93.6367 87.3371H61.4954Z" fill="#6D44BC"/>
<path d="M30.7173 64.6648C23.4092 64.6648 16.1011 64.6648 8.79298 64.6648C6.93686 64.6648 6.46591 64.1939 6.46591 62.3433C6.46591 50.9573 6.46591 39.5768 6.46591 28.1908C6.46591 26.3347 6.93132 25.8637 8.78743 25.8637C23.4036 25.8637 38.0199 25.8637 52.6361 25.8637C54.4922 25.8637 54.9631 26.3291 54.9631 28.1852C54.9631 39.5713 54.9631 50.9517 54.9631 62.3377C54.9631 64.1939 54.4922 64.6648 52.6416 64.6648C45.3335 64.6648 38.0254 64.6648 30.7173 64.6648ZM35.9089 52.7746C36.1527 52.4422 36.3521 52.1818 36.5405 51.9103C37.7594 50.176 38.9728 48.4363 40.1862 46.7021C41.5603 44.7407 42.5078 44.7518 43.904 46.7464C46.2754 50.1373 48.6523 53.5281 51.0293 56.9135C51.2066 57.1628 51.4116 57.3955 51.6554 57.7058V29.1493H9.79029V57.2514C10.1116 56.7472 10.3111 56.437 10.505 56.1211C14.5331 49.6774 18.5611 43.2281 22.5947 36.7843C23.5699 35.2274 24.9162 35.2274 25.8969 36.7621C26.4399 37.6099 26.9663 38.4742 27.5037 39.3275C30.2851 43.7711 33.0665 48.2202 35.9089 52.7691V52.7746ZM37.4935 61.4125C33.061 54.326 28.695 47.3503 24.2514 40.2417C19.7911 47.378 15.4362 54.3426 11.0148 61.4125H37.499H37.4935ZM50.248 61.4291C47.4389 57.4232 44.7739 53.6168 42.0368 49.6995C40.6295 51.7108 39.3108 53.5669 38.0365 55.4563C37.9201 55.6336 37.97 56.038 38.0974 56.243C39.0504 57.8277 40.0256 59.3901 41.0229 60.947C41.1614 61.1631 41.4661 61.4069 41.6933 61.4125C44.4692 61.4457 47.2506 61.4346 50.248 61.4346V61.4291Z" fill="#6D44BC"/>
<path d="M74.4883 79.209C73.2195 79.209 72.5325 78.184 72.8926 76.9152C74.0118 72.937 75.1532 68.9644 76.2891 64.9862C77.2476 61.623 78.2117 58.2654 79.1813 54.9077C79.5359 53.6888 80.3393 53.1347 81.2756 53.4173C82.2452 53.711 82.6165 54.5698 82.2674 55.7943C80.1841 63.0968 78.0898 70.3938 76.0176 77.702C75.7682 78.5718 75.3139 79.1314 74.4939 79.2035L74.4883 79.209Z" fill="#6D44BC"/>
<path d="M88.2901 66.2993C86.6334 64.6537 85.0821 63.1134 83.5362 61.5731C83.298 61.3349 83.0431 61.1077 82.8436 60.8418C82.3062 60.127 82.3284 59.4012 82.9267 58.7308C83.5085 58.0825 84.4393 57.9773 85.0987 58.6144C87.3482 60.7919 89.5589 63.0026 91.7364 65.2521C92.3902 65.9281 92.296 66.7758 91.6477 67.4351C89.5257 69.596 87.387 71.7402 85.2261 73.8623C84.4948 74.577 83.514 74.5382 82.8824 73.8734C82.2563 73.214 82.2729 72.2721 83.0043 71.5297C84.7108 69.8065 86.4451 68.1166 88.2845 66.2993H88.2901Z" fill="#6D44BC"/>
<path d="M66.9198 66.2716C68.6651 68.0058 70.3163 69.6237 71.9286 71.2803C72.2666 71.6239 72.6932 72.1336 72.6544 72.527C72.6045 73.081 72.2776 73.7515 71.851 74.1005C71.1917 74.638 70.4437 74.3443 69.8619 73.7681C68.0723 71.9895 66.2938 70.2055 64.5152 68.4214C62.5095 66.4157 62.5095 66.1497 64.5152 64.144C66.2716 62.3876 68.0224 60.6202 69.7954 58.8693C70.6376 58.0327 71.5906 57.9883 72.2832 58.6975C72.9647 59.4012 72.8982 60.332 72.0505 61.1853C70.3938 62.853 68.715 64.4986 66.9198 66.2716Z" fill="#6D44BC"/>
<path d="M42.8845 6.23876H6.46591V9.60193H42.8845V6.23876Z" fill="#6D44BC"/>
</svg>
