<svg width="95" height="95" viewBox="0 0 95 95" fill="none" xmlns="http://www.w3.org/2000/svg">
<path d="M30.7612 87.5416C26.2992 86.3704 24.7219 83.7012 25.1376 78.2993C25.4137 74.7509 27.9272 72.7895 32.9255 72.3134C32.7224 71.8659 32.5479 71.4501 32.3511 71.0471C29.771 65.7245 27.2068 60.3924 24.5886 55.0889C24.065 54.0288 24.065 53.1528 24.6616 52.1213C30.6406 41.7587 36.591 31.3801 42.535 20.9953C43.084 20.0368 43.7187 19.2592 44.9279 19.6178C46.0608 19.9511 46.2258 20.9032 46.2227 21.9569C46.2068 31.0564 46.2036 40.1559 46.229 49.2553C46.229 50.3122 45.9307 51.093 45.077 51.769C43.1126 53.321 42.919 55.9395 44.5597 57.6851C46.156 59.3831 48.8535 59.3831 50.4403 57.6851C52.0778 55.9363 51.8938 53.2988 49.9325 51.7595C49.0693 51.0835 48.771 50.3122 48.7742 49.2585C48.7964 40.159 48.7932 31.0596 48.7805 21.9601C48.7805 20.9096 48.936 19.9511 50.069 19.6178C51.2749 19.2623 51.916 20.0272 52.465 20.9889C58.4059 31.3738 64.3563 41.7523 70.3352 52.115C70.9287 53.1433 70.935 54.0225 70.4114 55.0825C67.7901 60.386 65.229 65.7181 62.6489 71.0439C62.468 71.4184 62.2998 71.8024 62.0332 72.3801C64.7022 72.2658 66.9649 72.9037 68.5898 75.0302C69.7703 76.5759 69.9195 78.3469 69.9005 80.2036C69.856 84.2535 68.1963 86.5006 64.2389 87.5448C64.2389 89.1698 64.2452 90.8488 64.2389 92.5277C64.2293 94.4352 63.6581 95.0002 61.7222 95.0002C52.2429 95.0002 42.7635 95.0002 33.2841 95.0002C31.3451 95.0002 30.777 94.4384 30.7675 92.5277C30.7612 90.8837 30.7675 89.2396 30.7675 87.5416H30.7612ZM42.6556 28.1841C42.3509 28.5713 42.2367 28.6824 42.1605 28.8188C37.5272 36.8836 32.8874 44.942 28.2953 53.029C28.0795 53.4067 28.1113 54.0955 28.308 54.5081C31.0246 60.1893 33.8014 65.8387 36.5243 71.5168C36.8417 72.1801 37.2035 72.4277 37.9461 72.4245C44.2931 72.3959 50.6402 72.3928 56.9873 72.4245C57.7839 72.4277 58.1615 72.1674 58.5011 71.4533C61.1827 65.8514 63.8961 60.2623 66.6444 54.6921C67.0062 53.959 66.9903 53.4353 66.5809 52.7275C62.0713 44.9325 57.603 37.1185 53.1188 29.3076C52.9442 29.0029 52.7316 28.7236 52.4904 28.365C52.4047 28.5681 52.3508 28.6379 52.3508 28.7077C52.3444 35.2681 52.3317 41.8285 52.3698 48.3857C52.3698 48.8173 52.6808 49.3251 52.9887 49.6647C54.293 51.1057 55.0197 52.7751 55.0895 54.708C55.2101 58.0533 53.0204 61.1287 49.8373 62.1539C46.5876 63.2013 43.0174 61.9412 41.1513 59.0879C39.2599 56.1934 39.5328 52.5339 41.7956 49.8996C42.1573 49.4807 42.6112 48.9379 42.6175 48.446C42.6715 41.8031 42.6556 35.1602 42.6556 28.1809V28.1841ZM47.4984 75.9602C42.5921 75.9602 37.6858 75.9602 32.7827 75.9602C29.5362 75.9602 28.6635 76.8425 28.6666 80.1084C28.6698 83.0474 29.6663 84.0313 32.6526 84.0313C38.1079 84.0313 43.5632 84.0313 49.0186 84.0313C53.4171 84.0313 57.8156 84.0313 62.2141 84.0313C65.4162 84.0313 66.3366 83.0918 66.3334 79.8545C66.3334 79.7688 66.3334 79.6863 66.3334 79.6006C66.3175 77.0425 65.2512 75.9634 62.7251 75.9602C57.6506 75.9538 52.5761 75.9602 47.5016 75.9602H47.4984ZM34.3473 91.3375H60.6083V87.7035H34.3504V91.3375H34.3473Z" fill="#6D44BC"/>
<path d="M53.7091 8.18557C53.7091 8.99173 53.7345 9.70585 53.7028 10.4168C53.6393 11.8133 53.0363 12.4322 51.659 12.4449C48.8663 12.4671 46.0736 12.4703 43.2808 12.4449C41.9765 12.4322 41.3672 11.8069 41.3005 10.4866C41.2625 9.73441 41.2942 8.97903 41.2942 8.22683C24.3094 8.33157 8.03864 23.5153 7.73081 41.7523C8.35283 41.7523 8.97484 41.7206 9.59368 41.7587C10.8409 41.838 11.4566 42.441 11.4724 43.6852C11.5042 46.2243 11.501 48.7634 11.4724 51.3025C11.4566 52.5498 10.8472 53.2163 9.60955 53.2385C7.07071 53.2893 4.53188 53.2861 1.99305 53.2417C0.625249 53.2195 0.0317969 52.5498 0.0191027 51.1406C6.14636e-05 48.7285 6.14636e-05 46.3163 0.0191027 43.9042C0.0317969 42.3871 0.650638 41.7904 2.2025 41.7491C2.78008 41.7333 3.35767 41.7491 3.92573 41.7491C5.29988 26.4543 12.6847 15.3331 26.277 8.15066C25.9089 8.08401 25.6645 8.00149 25.417 7.99831C21.3548 7.98879 17.2927 8.01101 13.2306 7.97609C12.488 7.96975 12.142 8.21414 11.8152 8.89651C10.5172 11.6006 7.66417 12.9464 4.8651 12.2767C1.974 11.5879 0.0159292 9.15042 0.00958209 6.23999C6.1464e-05 3.32956 1.95179 0.876169 4.82702 0.177919C7.62926 -0.501287 10.4632 0.831735 11.8025 3.51999C12.0913 4.10081 12.3451 4.45311 13.0878 4.45311C22.2276 4.42454 31.3705 4.43407 40.5103 4.42772C40.7166 4.42772 40.9197 4.37059 41.291 4.31346C41.291 3.59299 41.272 2.88522 41.2942 2.18063C41.3418 0.619086 41.9257 0.0224001 43.4554 0.0128785C46.1624 -0.00299076 48.8726 -0.00299076 51.5797 0.0128785C53.0427 0.0224001 53.6488 0.625433 53.7059 2.08858C53.7345 2.79953 53.7123 3.51365 53.7123 4.34837C54.2264 4.38328 54.6326 4.43089 55.0356 4.43089C63.8803 4.43407 72.725 4.42137 81.5696 4.45311C82.4487 4.45311 82.8898 4.19285 83.2897 3.38034C84.5781 0.768257 87.4407 -0.494939 90.2112 0.190615C93.0769 0.898386 95.0159 3.374 94.9937 6.28443C94.9715 9.13455 93.0293 11.5562 90.2143 12.2513C87.4438 12.9368 84.5654 11.6736 83.296 9.06155C82.8708 8.18874 82.3852 7.95388 81.4681 7.96657C77.6598 8.01735 73.8516 7.98562 70.0433 7.99196C69.6403 7.99196 69.2404 8.03322 68.5771 8.06814C82.2837 15.2791 89.678 26.3908 91.0807 41.746C91.6424 41.746 92.2549 41.7301 92.8643 41.7491C94.3368 41.7967 94.9778 42.403 94.9905 43.8344C95.0128 46.2878 95.0159 48.7443 94.9905 51.1977C94.9778 52.572 94.3495 53.2258 92.9595 53.2449C90.4619 53.283 87.9643 53.2861 85.4699 53.2417C84.1497 53.2195 83.5531 52.5752 83.5372 51.2422C83.5118 48.83 83.5182 46.4179 83.5309 44.0058C83.5404 42.3522 84.1021 41.7872 85.727 41.746C86.2284 41.7333 86.7298 41.746 87.2312 41.746C87.2725 25.2229 72.3949 8.62356 53.7154 8.1824L53.7091 8.18557ZM44.9089 8.82986H50.0659V3.63108H44.9089V8.82986ZM88.7228 8.88699C90.1699 8.91238 91.4013 7.72536 91.4266 6.27491C91.452 4.8308 90.2556 3.58982 88.8148 3.57078C87.3677 3.54856 86.1395 4.73876 86.111 6.18604C86.0824 7.63014 87.2725 8.8616 88.7228 8.88699ZM8.88915 6.25904C8.91137 4.82128 7.70542 3.58665 6.25829 3.57078C4.8175 3.55173 3.58616 4.7578 3.5703 6.20191C3.55443 7.64601 4.7572 8.88064 6.19799 8.89334C7.63878 8.90604 8.86694 7.70314 8.88915 6.25904ZM7.85141 45.38H3.63059V49.6267H7.85141V45.38ZM91.3886 45.4118H87.1836V49.5949H91.3886V45.4118Z" fill="#6D44BC"/>
<path d="M42.6556 28.1841C42.3509 28.5713 42.2367 28.6824 42.1605 28.8188C37.5272 36.8836 32.8874 44.942 28.2953 53.029C28.0795 53.4067 28.1113 54.0955 28.308 54.5081C31.0246 60.1893 33.8014 65.8387 36.5243 71.5168C36.8417 72.1801 37.2035 72.4277 37.9461 72.4245C44.2931 72.3959 50.6402 72.3928 56.9873 72.4245C57.7839 72.4277 58.1615 72.1674 58.5011 71.4533C61.1827 65.8514 63.8961 60.2623 66.6444 54.6921C67.0062 53.959 66.9903 53.4353 66.5809 52.7275C62.0713 44.9325 57.603 37.1185 53.1188 29.3076C52.9442 29.0029 52.7316 28.7236 52.4904 28.365C52.4047 28.5681 52.3508 28.6379 52.3508 28.7077C52.3444 35.2681 52.3317 41.8285 52.3698 48.3857C52.3698 48.8173 52.6808 49.3251 52.9887 49.6647C54.293 51.1057 55.0197 52.7751 55.0895 54.708C55.2101 58.0533 53.0204 61.1287 49.8373 62.1539C46.5876 63.2013 43.0174 61.9412 41.1513 59.0879C39.2599 56.1934 39.5328 52.5339 41.7956 49.8996C42.1573 49.4807 42.6112 48.9379 42.6175 48.446C42.6715 41.8031 42.6556 35.1602 42.6556 28.1809V28.1841Z" fill="#1B1629"/>
</svg>
