<svg width="95" height="95" viewBox="0 0 95 95" fill="none" xmlns="http://www.w3.org/2000/svg">
<g clip-path="url(#clip0_1291_267)">
<path d="M30.7612 87.5412C26.2992 86.37 24.7219 83.7008 25.1377 78.2989C25.4138 74.7505 27.9272 72.7891 32.9255 72.313C32.7224 71.8655 32.5479 71.4497 32.3511 71.0466C29.771 65.7241 27.2068 60.392 24.5886 55.0885C24.065 54.0284 24.065 53.1524 24.6616 52.1209C30.6406 41.7583 36.591 31.3797 42.535 20.9949C43.084 20.0364 43.7188 19.2588 44.9279 19.6174C46.0608 19.9507 46.2258 20.9028 46.2227 21.9565C46.2068 31.056 46.2036 40.1555 46.229 49.2549C46.229 50.3118 45.9307 51.0926 45.077 51.7686C43.1126 53.3206 42.919 55.9391 44.5597 57.6847C46.156 59.3827 48.8535 59.3827 50.4403 57.6847C52.0779 55.9359 51.8938 53.2984 49.9325 51.7591C49.0693 51.0831 48.771 50.3118 48.7742 49.2581C48.7964 40.1586 48.7932 31.0592 48.7806 21.9597C48.7806 20.9092 48.9361 19.9507 50.069 19.6174C51.275 19.2619 51.916 20.0268 52.465 20.9885C58.4059 31.3734 64.3563 41.7519 70.3353 52.1146C70.9287 53.1429 70.9351 54.0221 70.4114 55.0821C67.7901 60.3857 65.229 65.7177 62.6489 71.0435C62.468 71.418 62.2998 71.802 62.0333 72.3797C64.7022 72.2654 66.965 72.9034 68.5898 75.0298C69.7704 76.5755 69.9195 78.3465 69.9005 80.2032C69.856 84.2531 68.1963 86.5002 64.2389 87.5444C64.2389 89.1694 64.2452 90.8484 64.2389 92.5273C64.2294 94.4348 63.6581 94.9998 61.7223 94.9998C52.2429 94.9998 42.7635 94.9998 33.2841 94.9998C31.3451 94.9998 30.777 94.438 30.7675 92.5273C30.7612 90.8833 30.7675 89.2392 30.7675 87.5412H30.7612ZM42.6556 28.1837C42.351 28.5709 42.2367 28.682 42.1605 28.8184C37.5272 36.8832 32.8875 44.9416 28.2953 53.0286C28.0795 53.4063 28.1113 54.0951 28.308 54.5077C31.0246 60.1889 33.8014 65.8383 36.5243 71.5164C36.8417 72.1797 37.2035 72.4273 37.9461 72.4241C44.2932 72.3955 50.6403 72.3924 56.9873 72.4241C57.7839 72.4273 58.1615 72.167 58.5011 71.4529C61.1828 65.851 63.8961 60.2619 66.6444 54.6917C67.0062 53.9586 66.9903 53.4349 66.581 52.7271C62.0714 44.9321 57.603 37.1181 53.1188 29.3072C52.9442 29.0025 52.7316 28.7232 52.4904 28.3646C52.4047 28.5677 52.3508 28.6375 52.3508 28.7073C52.3444 35.2677 52.3317 41.8281 52.3698 48.3853C52.3698 48.8169 52.6808 49.3247 52.9887 49.6643C54.293 51.1053 55.0197 52.7747 55.0896 54.7076C55.2101 58.0529 53.0204 61.1283 49.8373 62.1535C46.5876 63.2009 43.0174 61.9408 41.1514 59.0875C39.2599 56.193 39.5328 52.5335 41.7956 49.8992C42.1574 49.4803 42.6112 48.9375 42.6175 48.4456C42.6715 41.8027 42.6556 35.1598 42.6556 28.1805V28.1837ZM47.4984 75.9598C42.5921 75.9598 37.6858 75.9598 32.7827 75.9598C29.5362 75.9598 28.6635 76.8421 28.6666 80.108C28.6698 83.047 29.6663 84.0309 32.6526 84.0309C38.1079 84.0309 43.5633 84.0309 49.0186 84.0309C53.4171 84.0309 57.8156 84.0309 62.2142 84.0309C65.4163 84.0309 66.3366 83.0915 66.3334 79.8541C66.3334 79.7684 66.3334 79.6859 66.3334 79.6002C66.3176 77.0421 65.2512 75.963 62.7251 75.9598C57.6506 75.9534 52.5761 75.9598 47.5016 75.9598H47.4984ZM34.3473 91.3371H60.6083V87.7031H34.3505V91.3371H34.3473Z" fill="white"/>
<path d="M53.7091 8.18557C53.7091 8.99173 53.7345 9.70585 53.7028 10.4168C53.6393 11.8133 53.0363 12.4322 51.659 12.4449C48.8663 12.4671 46.0736 12.4703 43.2808 12.4449C41.9765 12.4322 41.3672 11.8069 41.3005 10.4866C41.2625 9.73441 41.2942 8.97903 41.2942 8.22683C24.3094 8.33157 8.03865 23.5153 7.73081 41.7523C8.35283 41.7523 8.97484 41.7206 9.59368 41.7587C10.8409 41.838 11.4566 42.441 11.4724 43.6852C11.5042 46.2243 11.501 48.7634 11.4724 51.3025C11.4566 52.5498 10.8472 53.2163 9.60955 53.2385C7.07071 53.2893 4.53188 53.2861 1.99305 53.2417C0.62525 53.2195 0.0317969 52.5498 0.0191027 51.1406C6.14631e-05 48.7285 6.14631e-05 46.3163 0.0191027 43.9042C0.0317969 42.3871 0.650638 41.7904 2.2025 41.7491C2.78008 41.7333 3.35767 41.7491 3.92573 41.7491C5.29988 26.4543 12.6847 15.3331 26.277 8.15066C25.9089 8.08401 25.6645 8.00149 25.417 7.99831C21.3548 7.98879 17.2927 8.01101 13.2306 7.97609C12.488 7.96975 12.142 8.21413 11.8152 8.89651C10.5172 11.6006 7.66417 12.9464 4.8651 12.2767C1.974 11.5879 0.0159292 9.15042 0.00958209 6.23999C6.14636e-05 3.32956 1.95179 0.876169 4.82702 0.177919C7.62926 -0.501287 10.4632 0.831735 11.8025 3.51999C12.0913 4.10081 12.3451 4.45311 13.0878 4.45311C22.2276 4.42454 31.3705 4.43407 40.5103 4.42772C40.7166 4.42772 40.9197 4.37059 41.291 4.31346C41.291 3.59299 41.272 2.88522 41.2942 2.18063C41.3418 0.619086 41.9257 0.0224001 43.4554 0.0128785C46.1624 -0.00299076 48.8726 -0.00299076 51.5797 0.0128785C53.0427 0.0224001 53.6488 0.625434 53.7059 2.08858C53.7345 2.79953 53.7123 3.51365 53.7123 4.34837C54.2264 4.38328 54.6326 4.43089 55.0356 4.43089C63.8803 4.43407 72.725 4.42137 81.5696 4.45311C82.4487 4.45311 82.8898 4.19285 83.2897 3.38034C84.5781 0.768257 87.4407 -0.494939 90.2112 0.190615C93.0769 0.898386 95.0159 3.374 94.9937 6.28443C94.9715 9.13455 93.0293 11.5562 90.2143 12.2513C87.4438 12.9368 84.5654 11.6736 83.296 9.06155C82.8708 8.18874 82.3852 7.95388 81.4681 7.96657C77.6598 8.01735 73.8516 7.98562 70.0433 7.99196C69.6403 7.99196 69.2404 8.03322 68.5771 8.06814C82.2837 15.2791 89.678 26.3908 91.0807 41.746C91.6424 41.746 92.2549 41.7301 92.8643 41.7491C94.3368 41.7967 94.9778 42.403 94.9905 43.8344C95.0127 46.2878 95.0159 48.7443 94.9905 51.1977C94.9778 52.572 94.3495 53.2258 92.9595 53.2449C90.4619 53.283 87.9643 53.2861 85.4699 53.2417C84.1497 53.2195 83.5531 52.5752 83.5372 51.2422C83.5118 48.83 83.5182 46.4179 83.5309 44.0058C83.5404 42.3522 84.1021 41.7872 85.727 41.746C86.2284 41.7333 86.7298 41.746 87.2312 41.746C87.2725 25.2229 72.3949 8.62356 53.7154 8.1824L53.7091 8.18557ZM44.9089 8.82986H50.0659V3.63108H44.9089V8.82986ZM88.7228 8.88699C90.1699 8.91238 91.4013 7.72536 91.4266 6.27491C91.452 4.8308 90.2556 3.58982 88.8148 3.57078C87.3677 3.54856 86.1395 4.73876 86.111 6.18604C86.0824 7.63014 87.2725 8.8616 88.7228 8.88699ZM8.88915 6.25904C8.91137 4.82128 7.70542 3.58665 6.25829 3.57078C4.8175 3.55173 3.58616 4.7578 3.5703 6.20191C3.55443 7.64601 4.7572 8.88064 6.19799 8.89334C7.63878 8.90604 8.86694 7.70314 8.88915 6.25904ZM7.85141 45.38H3.63059V49.6267H7.85141V45.38ZM91.3886 45.4118H87.1836V49.5949H91.3886V45.4118Z" fill="white"/>
<path d="M42.6556 28.1838C42.3509 28.571 42.2367 28.6821 42.1605 28.8186C37.5271 36.8834 32.8874 44.9418 28.2953 53.0288C28.0795 53.4065 28.1112 54.0952 28.308 54.5078C31.0245 60.189 33.8014 65.8385 36.5243 71.5166C36.8416 72.1799 37.2034 72.4275 37.946 72.4243C44.2931 72.3957 50.6402 72.3925 56.9873 72.4243C57.7839 72.4275 58.1615 72.1672 58.5011 71.4531C61.1827 65.8512 63.8961 60.2621 66.6444 54.6919C67.0062 53.9588 66.9903 53.4351 66.5809 52.7273C62.0713 44.9323 57.603 37.1183 53.1187 29.3074C52.9442 29.0027 52.7316 28.7234 52.4904 28.3647C52.4047 28.5679 52.3507 28.6377 52.3507 28.7075C52.3444 35.2679 52.3317 41.8283 52.3698 48.3855C52.3698 48.8171 52.6808 49.3249 52.9886 49.6645C54.293 51.1055 55.0197 52.7749 55.0895 54.7078C55.2101 58.053 53.0204 61.1285 49.8373 62.1537C46.5876 63.201 43.0174 61.941 41.1513 59.0877C39.2599 56.1932 39.5328 52.5337 41.7955 49.8994C42.1573 49.4804 42.6111 48.9377 42.6175 48.4458C42.6714 41.8029 42.6556 35.16 42.6556 28.1807V28.1838Z" fill="#1B1629"/>
</g>
<defs>
<clipPath id="clip0_1291_267">
<rect width="95" height="95" fill="white"/>
</clipPath>
</defs>
</svg>
