<svg width="97" height="97" viewBox="0 0 97 97" fill="none" xmlns="http://www.w3.org/2000/svg">
<g clip-path="url(#clip0_1291_261)">
<path d="M54.917 16.9434H7.83176V44.5581H54.917V16.9434Z" fill="#1B1629"/>
<path d="M97 14.92V71.7879C96.5386 72.8792 96.2361 74.0805 95.5822 75.0403C94.1001 77.2228 91.8603 78.0267 89.2813 78.0237C80.9882 78.0176 72.6919 78.0237 64.3988 78.0237H63.311V86.5612C64.6188 86.5612 65.8472 86.5551 67.0725 86.5612C70.5071 86.5795 72.6736 88.7345 72.7164 92.1734C72.7347 93.7812 72.7378 95.3922 72.75 97H24.25C24.2592 95.4839 24.2744 93.9708 24.2806 92.4546C24.2928 88.6887 26.392 86.5704 30.1292 86.5642C31.3178 86.5642 32.5065 86.5642 33.6952 86.5642V78.0237H32.4912C24.2836 78.0237 16.076 78.0328 7.87147 78.0115C7.0281 78.0115 6.15417 77.9503 5.34441 77.7302C1.95565 76.8163 0.0030557 74.1019 0 70.3848C0 52.4478 0 34.5077 0 16.5676C0 11.6157 2.93652 8.67507 7.88675 8.67507C13.6315 8.67507 19.3762 8.67507 25.1209 8.67507C25.4539 8.67507 25.7901 8.67507 26.1995 8.67507V0H70.8402V5.68251H86.027V8.67507C87.2646 8.67507 88.4257 8.66284 89.5869 8.67507C91.842 8.70258 93.8832 9.38118 95.2338 11.2336C96.0222 12.3157 96.4225 13.682 97 14.917V14.92ZM70.886 31.2828V34.1562H90.5097V49.5194C90.0972 49.5194 89.7244 49.5194 89.3547 49.5194C85.6298 49.5194 81.9018 49.5408 78.1769 49.5011C77.3916 49.4919 76.8018 49.7273 76.2152 50.2194C74.2778 51.8395 72.3039 53.4168 70.3452 55.0094C69.9907 55.2967 69.6301 55.5779 69.1137 55.9875C69.1137 53.9854 69.0801 52.1941 69.129 50.409C69.1504 49.6845 68.9029 49.4828 68.2092 49.5072C66.8922 49.5531 65.5752 49.5194 64.2521 49.5194V34.095H67.8823V31.2248H60.46V5.60915H67.9006V2.8489H29.1024V15.9288H56.1117V45.3714H29.0994V50.4854H61.1628V53.267H22.0132V50.4303H26.1293V45.3133H6.69808V15.8615H26.1323V11.5209C25.7473 11.5209 25.4081 11.5209 25.0689 11.5209C19.3212 11.5209 13.5765 11.5209 7.82869 11.5209C4.50715 11.5209 2.84791 13.1991 2.84791 16.5523C2.84791 30.0112 2.84791 43.4671 2.84791 56.9259V58.0111H94.1552V57.0177C94.1552 43.464 94.1552 29.9134 94.1552 16.3598C94.1552 16.0449 94.1552 15.727 94.1246 15.4122C93.9199 13.4803 92.5967 11.8999 90.6778 11.6615C89.1683 11.4751 87.616 11.6248 85.975 11.6248V31.2828H70.8891H70.886ZM94.1307 61.0067H2.8693C2.8693 64.4609 2.8693 67.8386 2.8693 71.2163C2.8693 71.3722 2.90291 71.5311 2.93652 71.684C3.40404 73.9184 5.13051 75.1748 7.76758 75.1748C34.9205 75.1748 62.0765 75.1748 89.2294 75.1748C89.6694 75.1748 90.1155 75.1503 90.5494 75.077C92.5356 74.7438 94.0513 73.2246 94.1063 71.2193C94.1979 67.8447 94.1307 64.467 94.1307 61.0128V61.0067ZM9.55822 18.7838V41.9387C15.0799 36.4793 20.4762 31.1422 26.0712 25.6095C28.7724 28.489 31.385 31.2737 34.0496 34.1164C38.0067 29.8828 41.753 25.8754 45.539 21.8222C48.118 24.02 50.6451 26.1689 53.2791 28.4125V18.7838H9.55822ZM83.1027 8.54363H63.3018V28.3361H83.1027V8.54363ZM53.3494 42.4339C53.3494 39.0684 53.3555 35.8191 53.3372 32.5697C53.3372 32.3772 53.2149 32.1296 53.0683 32.0042C50.6543 29.9226 48.2311 27.8562 45.7621 25.7501C40.5888 31.2951 35.4552 36.7942 30.1903 42.4339H53.3463H53.3494ZM36.6745 86.4939H60.298V78.0909H36.6745V86.4939ZM69.8746 94.1022C69.8746 93.4909 69.8746 92.9315 69.8746 92.3721C69.8654 90.3363 68.9579 89.4162 66.9503 89.4162C61.1781 89.4162 55.4059 89.4162 49.6306 89.4162C43.0364 89.4162 36.4453 89.4162 29.8511 89.4162C28.3569 89.4162 27.3271 90.2018 27.1804 91.5406C27.0887 92.3721 27.1621 93.2219 27.1621 94.1053H69.8715L69.8746 94.1022ZM87.6771 37.0326H67.1061V46.7011H72.0075V49.9841C73.2634 48.9662 74.3359 48.04 75.4757 47.2024C75.8729 46.912 76.426 46.6919 76.9119 46.6858C80.1295 46.64 83.3502 46.6644 86.5679 46.6614C86.9315 46.6614 87.2921 46.6277 87.6801 46.6063V37.0356L87.6771 37.0326ZM13.5153 42.4767C17.5397 42.4767 21.6985 42.4797 25.8604 42.4675C26.059 42.4675 26.3157 42.3819 26.447 42.2413C28.3905 40.1872 30.3186 38.1177 32.0176 36.299C29.9336 34.0889 27.9291 31.9614 25.8145 29.7178C21.6802 34.0064 17.5947 38.2431 13.5153 42.4736V42.4767Z" fill="white"/>
<path d="M35.8403 11.4532V8.72656H57.1599V11.4532H35.8403Z" fill="white"/>
<path d="M27.4493 21.7002V24.3565H12.5039V21.7002H27.4524H27.4493Z" fill="white"/>
</g>
<defs>
<clipPath id="clip0_1291_261">
<rect width="97" height="97" fill="white"/>
</clipPath>
</defs>
</svg>
