<svg width="401" height="777" viewBox="0 0 401 777" fill="none" xmlns="http://www.w3.org/2000/svg">
<path d="M93.2914 394.556C93.4853 394.556 93.6441 394.626 93.8028 394.785L95.1429 396.247C94.1025 397.444 92.8505 398.378 91.3693 399.047C89.888 399.717 88.1247 400.051 86.0439 400.051C84.2276 400.051 82.5701 399.734 81.0888 399.1C79.6076 398.466 78.3379 397.585 77.2975 396.458C76.2571 395.331 75.446 393.957 74.8641 392.389C74.2822 390.804 74 389.06 74 387.157C74 385.255 74.3174 383.511 74.917 381.926C75.5342 380.341 76.3982 378.984 77.5268 377.839C78.6377 376.695 79.9779 375.814 81.5297 375.197C83.0814 374.563 84.8095 374.246 86.6963 374.246C88.5832 374.246 90.1526 374.528 91.5104 375.109C92.8506 375.69 94.0496 376.466 95.09 377.452L93.9791 379.02C93.8909 379.143 93.8028 379.231 93.697 379.301C93.5912 379.372 93.4324 379.425 93.2385 379.425C93.0798 379.425 92.9211 379.372 92.7624 379.266C92.586 379.161 92.392 379.02 92.1452 378.843C91.8983 378.667 91.6338 378.509 91.3164 378.315C90.999 378.121 90.6287 377.945 90.1879 377.787C89.747 377.628 89.2532 377.487 88.6713 377.381C88.0894 377.276 87.4369 377.205 86.6787 377.205C85.3209 377.205 84.0865 377.434 82.9756 377.91C81.847 378.368 80.8772 379.037 80.066 379.883C79.2549 380.746 78.62 381.785 78.1792 383.018C77.7207 384.251 77.4915 385.625 77.4915 387.157C77.4915 388.69 77.7207 390.134 78.1792 391.367C78.6377 392.6 79.2549 393.64 80.0308 394.485C80.8067 395.331 81.7412 395.982 82.8169 396.423C83.8926 396.863 85.0388 397.092 86.2731 397.092C87.0314 397.092 87.7015 397.039 88.301 396.951C88.9006 396.863 89.4472 396.722 89.9586 396.528C90.47 396.335 90.9461 396.106 91.3869 395.824C91.8278 395.542 92.2686 395.19 92.7095 394.785C92.9034 394.608 93.0974 394.52 93.2914 394.52V394.556Z" fill="black"/>
<path d="M124.521 387.157C124.521 389.042 124.221 390.786 123.621 392.371C123.022 393.957 122.175 395.313 121.082 396.44C119.989 397.585 118.666 398.466 117.15 399.1C115.616 399.734 113.923 400.051 112.054 400.051C110.185 400.051 108.509 399.734 106.975 399.1C105.441 398.466 104.136 397.585 103.043 396.44C101.95 395.295 101.103 393.939 100.504 392.371C99.904 390.786 99.6042 389.06 99.6042 387.157C99.6042 385.255 99.904 383.529 100.504 381.944C101.103 380.358 101.95 379.002 103.043 377.857C104.136 376.712 105.441 375.831 106.975 375.197C108.509 374.563 110.202 374.246 112.054 374.246C113.905 374.246 115.616 374.563 117.15 375.197C118.684 375.831 119.989 376.73 121.082 377.857C122.175 379.002 123.022 380.358 123.621 381.944C124.221 383.529 124.521 385.255 124.521 387.157ZM121.012 387.157C121.012 385.607 120.8 384.216 120.377 382.983C119.954 381.75 119.354 380.711 118.578 379.847C117.802 379.002 116.868 378.333 115.757 377.875C114.646 377.417 113.411 377.188 112.054 377.188C110.696 377.188 109.479 377.417 108.368 377.875C107.257 378.333 106.323 378.984 105.547 379.847C104.771 380.693 104.154 381.732 103.731 382.983C103.307 384.216 103.096 385.607 103.096 387.157C103.096 388.708 103.307 390.099 103.731 391.332C104.154 392.565 104.753 393.604 105.547 394.45C106.323 395.295 107.275 395.947 108.368 396.405C109.479 396.863 110.696 397.092 112.054 397.092C113.411 397.092 114.646 396.863 115.757 396.405C116.868 395.947 117.802 395.295 118.578 394.45C119.354 393.604 119.954 392.565 120.377 391.332C120.8 390.099 121.012 388.725 121.012 387.157Z" fill="black"/>
<path d="M143.477 391.526C143.601 391.843 143.724 392.143 143.847 392.46C143.971 392.125 144.094 391.826 144.218 391.526C144.341 391.227 144.5 390.927 144.659 390.628L153.211 375.11C153.37 374.845 153.528 374.669 153.687 374.616C153.846 374.564 154.093 374.528 154.392 374.528H156.914V399.77H153.916V381.222C153.916 380.975 153.916 380.711 153.916 380.429C153.916 380.147 153.952 379.865 153.969 379.566L145.311 395.349C145.011 395.877 144.606 396.141 144.077 396.141H143.583C143.054 396.141 142.648 395.877 142.349 395.349L133.496 379.513C133.532 379.813 133.567 380.112 133.567 380.412C133.585 380.711 133.602 380.975 133.602 381.222V399.77H130.604V374.528H133.126C133.426 374.528 133.673 374.564 133.832 374.616C133.99 374.669 134.149 374.845 134.308 375.11L143.036 390.646C143.195 390.927 143.336 391.227 143.477 391.526Z" fill="black"/>
<path d="M168.217 390.328V399.77H164.814V374.528H172.273C173.878 374.528 175.271 374.722 176.452 375.074C177.634 375.444 178.604 375.973 179.397 376.66C180.173 377.347 180.755 378.157 181.125 379.126C181.513 380.094 181.69 381.169 181.69 382.349C181.69 383.529 181.478 384.604 181.072 385.573C180.667 386.541 180.05 387.387 179.256 388.091C178.463 388.796 177.475 389.342 176.311 389.73C175.13 390.117 173.79 390.328 172.273 390.328H168.217ZM168.217 387.616H172.273C173.243 387.616 174.107 387.493 174.848 387.228C175.588 386.964 176.223 386.612 176.734 386.154C177.246 385.696 177.616 385.132 177.881 384.48C178.145 383.829 178.269 383.124 178.269 382.349C178.269 380.746 177.775 379.478 176.787 378.58C175.8 377.681 174.283 377.223 172.273 377.223H168.217V387.616Z" fill="black"/>
<path d="M191.176 389.236V399.77H187.773V374.528H194.915C196.52 374.528 197.895 374.687 199.059 375.022C200.223 375.339 201.192 375.814 201.951 376.413C202.709 377.03 203.273 377.752 203.644 378.615C204.014 379.478 204.19 380.447 204.19 381.521C204.19 382.42 204.049 383.247 203.767 384.022C203.485 384.798 203.079 385.484 202.55 386.101C202.021 386.718 201.369 387.246 200.593 387.686C199.817 388.127 198.953 388.444 197.983 388.673C198.406 388.919 198.777 389.272 199.112 389.747L206.483 399.77H203.45C202.832 399.77 202.374 399.523 202.074 399.048L195.514 390.029C195.32 389.747 195.091 389.536 194.862 389.413C194.633 389.289 194.28 389.219 193.804 389.219H191.212L191.176 389.236ZM191.176 386.753H194.756C195.761 386.753 196.625 386.629 197.401 386.383C198.159 386.136 198.794 385.802 199.306 385.361C199.817 384.921 200.205 384.392 200.452 383.776C200.716 383.159 200.84 382.49 200.84 381.75C200.84 380.253 200.346 379.108 199.341 378.351C198.336 377.593 196.872 377.206 194.915 377.206H191.176V386.735V386.753Z" fill="black"/>
<path d="M234.203 387.157C234.203 389.042 233.903 390.786 233.304 392.371C232.704 393.957 231.858 395.313 230.764 396.44C229.671 397.585 228.349 398.466 226.832 399.1C225.298 399.734 223.605 400.051 221.736 400.051C219.867 400.051 218.191 399.734 216.657 399.1C215.123 398.466 213.818 397.585 212.725 396.44C211.632 395.295 210.785 393.939 210.186 392.371C209.586 390.786 209.286 389.06 209.286 387.157C209.286 385.255 209.586 383.529 210.186 381.944C210.785 380.358 211.632 379.002 212.725 377.857C213.818 376.712 215.123 375.831 216.657 375.197C218.191 374.563 219.884 374.246 221.736 374.246C223.587 374.246 225.298 374.563 226.832 375.197C228.366 375.831 229.671 376.73 230.764 377.857C231.858 379.002 232.704 380.358 233.304 381.944C233.903 383.529 234.203 385.255 234.203 387.157ZM230.694 387.157C230.694 385.607 230.482 384.216 230.059 382.983C229.636 381.75 229.036 380.711 228.26 379.847C227.484 379.002 226.55 378.333 225.439 377.875C224.328 377.417 223.094 377.188 221.736 377.188C220.378 377.188 219.161 377.417 218.05 377.875C216.939 378.333 216.005 378.984 215.229 379.847C214.453 380.693 213.836 381.732 213.413 382.983C212.989 384.216 212.778 385.607 212.778 387.157C212.778 388.708 212.989 390.099 213.413 391.332C213.836 392.565 214.435 393.604 215.229 394.45C216.005 395.295 216.957 395.947 218.05 396.405C219.161 396.863 220.378 397.092 221.736 397.092C223.094 397.092 224.328 396.863 225.439 396.405C226.55 395.947 227.484 395.295 228.26 394.45C229.036 393.604 229.636 392.565 230.059 391.332C230.482 390.099 230.694 388.725 230.694 387.157Z" fill="black"/>
<path d="M253.159 391.526C253.283 391.843 253.406 392.143 253.53 392.46C253.653 392.125 253.776 391.826 253.9 391.526C254.023 391.227 254.182 390.927 254.341 390.628L262.893 375.11C263.052 374.845 263.211 374.669 263.369 374.616C263.528 374.564 263.775 374.528 264.075 374.528H266.596V399.77H263.598V381.222C263.598 380.975 263.598 380.711 263.598 380.429C263.598 380.147 263.634 379.865 263.651 379.566L254.993 395.349C254.693 395.877 254.288 396.141 253.759 396.141H253.265C252.736 396.141 252.33 395.877 252.031 395.349L243.179 379.513C243.214 379.813 243.249 380.112 243.249 380.412C243.267 380.711 243.284 380.975 243.284 381.222V399.77H240.287V374.528H242.808C243.108 374.528 243.355 374.564 243.514 374.616C243.672 374.669 243.831 374.845 243.99 375.11L252.718 390.646C252.877 390.927 253.018 391.227 253.159 391.526Z" fill="black"/>
<path d="M278.199 399.77H274.778V374.528H278.199V399.77Z" fill="black"/>
<path d="M299.324 378.474C299.219 378.65 299.113 378.773 298.989 378.861C298.866 378.949 298.725 379.002 298.531 379.002C298.337 379.002 298.09 378.896 297.826 378.703C297.561 378.509 297.226 378.28 296.82 378.033C296.415 377.787 295.921 377.575 295.357 377.364C294.793 377.152 294.105 377.064 293.294 377.064C292.535 377.064 291.848 377.17 291.266 377.364C290.684 377.575 290.19 377.857 289.802 378.192C289.414 378.544 289.114 378.967 288.92 379.442C288.727 379.918 288.621 380.429 288.621 380.992C288.621 381.697 288.797 382.278 289.132 382.754C289.485 383.212 289.943 383.617 290.508 383.934C291.072 384.269 291.724 384.55 292.447 384.797C293.17 385.044 293.911 385.29 294.669 385.537C295.427 385.784 296.168 386.083 296.891 386.418C297.614 386.735 298.266 387.157 298.831 387.651C299.395 388.144 299.853 388.743 300.206 389.465C300.559 390.187 300.717 391.068 300.717 392.107C300.717 393.217 300.524 394.238 300.153 395.207C299.783 396.176 299.236 397.022 298.513 397.726C297.79 398.448 296.909 399.012 295.851 399.417C294.793 399.822 293.611 400.034 292.253 400.034C290.613 400.034 289.132 399.734 287.792 399.135C286.452 398.536 285.288 397.744 284.336 396.74L285.323 395.119C285.411 394.996 285.535 394.873 285.658 394.802C285.799 394.714 285.94 394.661 286.099 394.661C286.346 394.661 286.628 394.802 286.946 395.066C287.263 395.331 287.668 395.63 288.145 395.947C288.621 396.264 289.203 396.546 289.873 396.828C290.543 397.092 291.372 397.215 292.341 397.215C293.153 397.215 293.876 397.11 294.51 396.881C295.145 396.652 295.692 396.352 296.133 395.947C296.574 395.542 296.909 395.066 297.155 394.485C297.402 393.904 297.508 393.287 297.508 392.6C297.508 391.843 297.332 391.209 296.997 390.733C296.644 390.24 296.186 389.835 295.639 389.5C295.075 389.165 294.422 388.901 293.699 388.672C292.976 388.443 292.236 388.214 291.477 387.968C290.719 387.721 289.979 387.457 289.256 387.14C288.533 386.823 287.88 386.418 287.316 385.907C286.752 385.396 286.293 384.762 285.958 384.004C285.605 383.247 285.447 382.313 285.447 381.204C285.447 380.305 285.623 379.442 285.958 378.614C286.311 377.787 286.804 377.047 287.457 376.395C288.109 375.743 288.921 375.232 289.89 374.845C290.86 374.457 291.971 374.264 293.241 374.264C294.651 374.264 295.939 374.493 297.103 374.933C298.266 375.373 299.289 376.025 300.153 376.871L299.324 378.491V378.474Z" fill="black"/>
<path d="M329.954 387.157C329.954 389.042 329.655 390.786 329.055 392.371C328.455 393.957 327.609 395.313 326.516 396.44C325.422 397.585 324.1 398.466 322.583 399.1C321.049 399.734 319.356 400.051 317.487 400.051C315.618 400.051 313.943 399.734 312.409 399.1C310.875 398.466 309.57 397.585 308.476 396.44C307.383 395.295 306.537 393.939 305.937 392.371C305.338 390.786 305.038 389.06 305.038 387.157C305.038 385.255 305.338 383.529 305.937 381.944C306.537 380.358 307.383 379.002 308.476 377.857C309.57 376.712 310.875 375.831 312.409 375.197C313.943 374.563 315.636 374.246 317.487 374.246C319.339 374.246 321.049 374.563 322.583 375.197C324.118 375.831 325.422 376.73 326.516 377.857C327.609 379.002 328.455 380.358 329.055 381.944C329.655 383.529 329.954 385.255 329.954 387.157ZM326.445 387.157C326.445 385.607 326.234 384.216 325.81 382.983C325.387 381.75 324.788 380.711 324.012 379.847C323.236 379.002 322.301 378.333 321.19 377.875C320.079 377.417 318.845 377.188 317.487 377.188C316.129 377.188 314.913 377.417 313.802 377.875C312.691 378.333 311.756 378.984 310.98 379.847C310.205 380.693 309.587 381.732 309.164 382.983C308.741 384.216 308.529 385.607 308.529 387.157C308.529 388.708 308.741 390.099 309.164 391.332C309.587 392.565 310.187 393.604 310.98 394.45C311.756 395.295 312.709 395.947 313.802 396.405C314.913 396.863 316.129 397.092 317.487 397.092C318.845 397.092 320.079 396.863 321.19 396.405C322.301 395.947 323.236 395.295 324.012 394.45C324.788 393.604 325.387 392.565 325.81 391.332C326.234 390.099 326.445 388.725 326.445 387.157Z" fill="black"/>
<path d="M128.291 470.579C128.485 470.579 128.644 470.649 128.803 470.808L130.143 472.27C129.103 473.468 127.851 474.401 126.369 475.071C124.888 475.74 123.125 476.075 121.044 476.075C119.228 476.075 117.57 475.758 116.089 475.123C114.608 474.489 113.338 473.609 112.298 472.481C111.257 471.354 110.446 469.98 109.864 468.412C109.282 466.827 109 465.083 109 463.181C109 461.279 109.317 459.535 109.917 457.949C110.534 456.364 111.398 455.008 112.527 453.863C113.638 452.718 114.978 451.837 116.53 451.221C118.081 450.587 119.81 450.27 121.696 450.27C123.583 450.27 125.153 450.551 126.51 451.133C127.851 451.714 129.05 452.489 130.09 453.475L128.979 455.043C128.891 455.166 128.803 455.254 128.697 455.325C128.591 455.395 128.432 455.448 128.238 455.448C128.08 455.448 127.921 455.395 127.762 455.29C127.586 455.184 127.392 455.043 127.145 454.867C126.916 454.708 126.634 454.532 126.316 454.338C125.999 454.145 125.629 453.969 125.188 453.81C124.747 453.651 124.253 453.511 123.671 453.387C123.089 453.282 122.437 453.229 121.679 453.229C120.321 453.229 119.087 453.458 117.976 453.916C116.847 454.374 115.877 455.043 115.066 455.889C114.255 456.752 113.62 457.791 113.179 459.024C112.721 460.257 112.492 461.631 112.492 463.163C112.492 464.696 112.721 466.14 113.179 467.373C113.638 468.606 114.255 469.645 115.031 470.491C115.807 471.336 116.741 471.988 117.817 472.446C118.893 472.886 120.039 473.115 121.273 473.115C122.031 473.115 122.701 473.063 123.301 472.975C123.901 472.886 124.447 472.746 124.959 472.569C125.47 472.376 125.946 472.147 126.387 471.847C126.828 471.548 127.269 471.213 127.709 470.826C127.903 470.649 128.097 470.561 128.291 470.561V470.579Z" fill="#6D44BC"/>
<path d="M151.621 450.552V453.335H139.489V461.719H149.311V464.397H139.489V473.01H151.621V475.793H136.05V450.552H151.621Z" fill="#6D44BC"/>
<path d="M161.708 465.26V475.793H158.304V450.552H165.446C167.051 450.552 168.426 450.71 169.59 451.045C170.754 451.362 171.723 451.838 172.482 452.437C173.24 453.053 173.804 453.775 174.175 454.638C174.545 455.501 174.721 456.47 174.721 457.545C174.721 458.443 174.58 459.271 174.298 460.046C174.016 460.821 173.61 461.508 173.081 462.124C172.552 462.741 171.9 463.269 171.124 463.71C170.348 464.15 169.484 464.467 168.514 464.696C168.937 464.943 169.308 465.295 169.643 465.771L177.014 475.793H173.981C173.363 475.793 172.905 475.547 172.605 475.071L166.045 466.052C165.851 465.771 165.622 465.559 165.393 465.436C165.164 465.313 164.811 465.26 164.335 465.26H161.743H161.708ZM161.708 462.776H165.287C166.292 462.776 167.156 462.653 167.932 462.406C168.708 462.16 169.325 461.825 169.837 461.385C170.348 460.944 170.736 460.416 170.983 459.817C171.23 459.218 171.371 458.531 171.371 457.791C171.371 456.294 170.877 455.149 169.872 454.392C168.884 453.634 167.403 453.247 165.446 453.247H161.708V462.776Z" fill="#6D44BC"/>
<path d="M199.073 470.579C199.267 470.579 199.426 470.649 199.585 470.808L200.925 472.27C199.884 473.468 198.633 474.401 197.151 475.071C195.67 475.74 193.907 476.075 191.826 476.075C190.01 476.075 188.352 475.758 186.871 475.123C185.39 474.489 184.12 473.609 183.079 472.481C182.039 471.354 181.228 469.98 180.646 468.412C180.064 466.827 179.782 465.083 179.782 463.181C179.782 461.279 180.099 459.535 180.699 457.949C181.316 456.364 182.18 455.008 183.309 453.863C184.42 452.718 185.76 451.837 187.312 451.221C188.863 450.587 190.591 450.27 192.478 450.27C194.365 450.27 195.935 450.551 197.292 451.133C198.632 451.714 199.832 452.489 200.872 453.475L199.761 455.043C199.673 455.166 199.585 455.254 199.479 455.325C199.373 455.395 199.214 455.448 199.02 455.448C198.862 455.448 198.703 455.395 198.544 455.29C198.368 455.184 198.174 455.043 197.927 454.867C197.698 454.708 197.416 454.532 197.098 454.338C196.781 454.145 196.411 453.969 195.97 453.81C195.529 453.651 195.035 453.511 194.453 453.387C193.871 453.282 193.219 453.229 192.461 453.229C191.103 453.229 189.868 453.458 188.758 453.916C187.629 454.374 186.659 455.043 185.848 455.889C185.037 456.752 184.402 457.791 183.961 459.024C183.503 460.257 183.273 461.631 183.273 463.163C183.273 464.696 183.503 466.14 183.961 467.373C184.42 468.606 185.037 469.645 185.813 470.491C186.589 471.336 187.523 471.988 188.599 472.446C189.675 472.886 190.821 473.115 192.055 473.115C192.813 473.115 193.483 473.063 194.083 472.975C194.683 472.886 195.229 472.746 195.741 472.569C196.252 472.376 196.728 472.147 197.169 471.847C197.61 471.548 198.051 471.213 198.491 470.826C198.685 470.649 198.879 470.561 199.073 470.561V470.579Z" fill="#6D44BC"/>
<path d="M227.622 475.793H224.977C224.678 475.793 224.431 475.723 224.237 475.564C224.043 475.406 223.902 475.212 223.813 474.983L221.451 468.888H210.112L207.749 474.983C207.661 475.194 207.52 475.388 207.326 475.547C207.132 475.705 206.885 475.793 206.585 475.793H203.94L214.044 450.552H217.518L227.622 475.793ZM211.064 466.422H220.498L216.531 456.153C216.266 455.519 216.019 454.726 215.772 453.775C215.649 454.251 215.508 454.709 215.402 455.096C215.279 455.501 215.155 455.854 215.032 456.171L211.064 466.422Z" fill="#6D44BC"/>
<path d="M234.676 450.657C234.817 450.728 234.993 450.886 235.187 451.115L249.823 470.139C249.788 469.84 249.77 469.54 249.753 469.258C249.753 468.976 249.753 468.695 249.753 468.43V450.552H252.751V475.793H251.022C250.758 475.793 250.529 475.74 250.352 475.652C250.176 475.564 249.982 475.406 249.806 475.177L235.187 456.171C235.205 456.47 235.223 456.752 235.24 457.034C235.24 457.316 235.24 457.58 235.24 457.809V475.793H232.242V450.552H234.006C234.306 450.552 234.535 450.587 234.676 450.675V450.657Z" fill="#6D44BC"/>
<path d="M268.691 444.404L263.507 448.209C263.313 448.35 263.137 448.438 262.978 448.491C262.819 448.544 262.625 448.561 262.379 448.561H259.945L263.666 444.986C263.789 444.862 263.895 444.774 264.001 444.704C264.107 444.633 264.212 444.58 264.301 444.528C264.406 444.475 264.53 444.457 264.653 444.44C264.777 444.422 264.953 444.422 265.147 444.422H268.691V444.404ZM264.354 475.793H260.933V450.552H264.354V475.793Z" fill="#6D44BC"/>
<path d="M293.326 475.793H290.681C290.381 475.793 290.134 475.723 289.94 475.564C289.746 475.406 289.605 475.212 289.517 474.983L287.154 468.888H275.816L273.453 474.983C273.365 475.194 273.223 475.388 273.03 475.547C272.836 475.705 272.589 475.793 272.289 475.793H269.644L279.748 450.552H283.222L293.326 475.793ZM276.768 466.422H286.202L282.234 456.153C281.97 455.519 281.723 454.726 281.476 453.775C281.353 454.251 281.212 454.709 281.106 455.096C280.982 455.501 280.859 455.854 280.735 456.171L276.768 466.422Z" fill="#6D44BC"/>
<path d="M99.2914 545.335C99.4853 545.335 99.6441 545.405 99.8028 545.564L101.143 547.026C100.103 548.224 98.8505 549.157 97.3693 549.826C95.888 550.496 94.1247 550.831 92.0439 550.831C90.2276 550.831 88.5701 550.513 87.0888 549.879C85.6076 549.245 84.3379 548.365 83.2975 547.237C82.2571 546.11 81.446 544.736 80.8641 543.168C80.2822 541.583 80 539.839 80 537.937C80 536.034 80.3174 534.291 80.917 532.705C81.5342 531.12 82.3982 529.764 83.5268 528.619C84.6377 527.474 85.9779 526.593 87.5297 525.977C89.0814 525.342 90.8095 525.025 92.6963 525.025C94.5832 525.025 96.1526 525.307 97.5104 525.888C98.8506 526.47 100.05 527.245 101.09 528.231L99.9791 529.799C99.8909 529.922 99.8028 530.01 99.697 530.081C99.5912 530.151 99.4324 530.204 99.2385 530.204C99.0798 530.204 98.9211 530.151 98.7624 530.046C98.586 529.94 98.392 529.799 98.1452 529.623C97.9159 529.464 97.6338 529.288 97.3164 529.094C96.999 528.901 96.6287 528.724 96.1879 528.566C95.747 528.407 95.2532 528.266 94.6713 528.143C94.0894 528.037 93.4369 527.985 92.6787 527.985C91.3209 527.985 90.0865 528.214 88.9756 528.672C87.847 529.13 86.8772 529.799 86.066 530.644C85.2549 531.507 84.62 532.547 84.1792 533.78C83.7207 535.013 83.4915 536.387 83.4915 537.919C83.4915 539.452 83.7207 540.896 84.1792 542.129C84.6377 543.362 85.2549 544.401 86.0308 545.247C86.8067 546.092 87.7412 546.744 88.8169 547.202C89.8926 547.642 91.0388 547.871 92.2731 547.871C93.0314 547.871 93.7015 547.818 94.301 547.73C94.9006 547.642 95.4472 547.501 95.9586 547.325C96.47 547.131 96.9461 546.903 97.3869 546.603C97.8278 546.304 98.2686 545.969 98.7095 545.581C98.9034 545.405 99.0974 545.317 99.2914 545.317V545.335Z" fill="black"/>
<path d="M110.806 540.016V550.549H107.403V525.308H114.544C116.149 525.308 117.525 525.466 118.688 525.801C119.852 526.118 120.822 526.593 121.58 527.192C122.339 527.809 122.903 528.531 123.273 529.394C123.644 530.257 123.82 531.226 123.82 532.301C123.82 533.199 123.679 534.027 123.397 534.802C123.115 535.577 122.709 536.264 122.18 536.88C121.651 537.497 120.998 538.025 120.223 538.466C119.447 538.906 118.583 539.223 117.613 539.452C118.036 539.699 118.406 540.051 118.741 540.526L126.112 550.549H123.079C122.462 550.549 122.004 550.302 121.704 549.827L115.144 540.808C114.95 540.526 114.721 540.315 114.492 540.192C114.262 540.069 113.91 540.016 113.434 540.016H110.841H110.806ZM110.806 537.532H114.386C115.391 537.532 116.255 537.409 117.031 537.162C117.807 536.916 118.424 536.581 118.935 536.14C119.447 535.7 119.835 535.172 120.082 534.573C120.328 533.974 120.469 533.287 120.469 532.547C120.469 531.05 119.976 529.905 118.971 529.148C117.983 528.39 116.502 528.003 114.544 528.003H110.806V537.532Z" fill="black"/>
<path d="M146.744 525.308V528.091H134.612V536.475H144.434V539.153H134.612V547.766H146.744V550.549H131.173V525.308H146.744Z" fill="black"/>
<path d="M173.865 550.549H171.219C170.92 550.549 170.673 550.479 170.479 550.32C170.285 550.162 170.144 549.968 170.056 549.739L167.693 543.644H156.354L153.991 549.739C153.903 549.95 153.762 550.144 153.568 550.302C153.374 550.461 153.127 550.549 152.827 550.549H150.182L160.286 525.308H163.76L173.865 550.549ZM157.306 541.178H166.74L162.773 530.909C162.508 530.275 162.261 529.482 162.015 528.531C161.891 529.007 161.75 529.465 161.644 529.852C161.521 530.257 161.397 530.61 161.274 530.927L157.306 541.178Z" fill="black"/>
<path d="M193.35 525.308V528.179H185.186V550.549H181.765V528.179H173.565V525.308H193.35Z" fill="black"/>
<path d="M202.414 550.549H198.993V525.308H202.414V550.549Z" fill="black"/>
<path d="M207.668 525.308H210.402C210.701 525.308 210.948 525.378 211.142 525.537C211.336 525.695 211.477 525.889 211.566 526.118L218.707 543.926C218.866 544.331 219.025 544.754 219.166 545.23C219.307 545.705 219.43 546.181 219.554 546.692C219.659 546.181 219.765 545.705 219.906 545.23C220.03 544.754 220.171 544.331 220.33 543.926L227.436 526.118C227.524 525.924 227.665 525.73 227.859 525.572C228.053 525.413 228.3 525.308 228.6 525.308H231.351L221.053 550.549H217.967L207.668 525.308Z" fill="black"/>
<path d="M240.044 550.549H236.623V525.308H240.044V550.549Z" fill="black"/>
<path d="M270.127 537.937C270.127 539.822 269.828 541.548 269.228 543.098C268.629 544.648 267.782 545.969 266.689 547.079C265.596 548.189 264.291 549.034 262.757 549.651C261.222 550.267 259.53 550.549 257.678 550.549H248.226V525.308H257.678C259.53 525.308 261.222 525.607 262.757 526.224C264.291 526.822 265.596 527.686 266.689 528.795C267.782 529.905 268.629 531.226 269.228 532.776C269.828 534.326 270.127 536.052 270.127 537.937ZM266.618 537.937C266.618 536.387 266.407 534.996 265.984 533.78C265.56 532.565 264.961 531.526 264.185 530.68C263.409 529.835 262.474 529.183 261.364 528.742C260.253 528.302 259.036 528.073 257.678 528.073H251.665V547.784H257.678C259.036 547.784 260.253 547.555 261.364 547.114C262.474 546.674 263.409 546.022 264.185 545.194C264.961 544.366 265.56 543.327 265.984 542.112C266.407 540.896 266.618 539.505 266.618 537.955V537.937Z" fill="black"/>
<path d="M296.243 550.549H293.598C293.298 550.549 293.051 550.479 292.857 550.32C292.663 550.162 292.522 549.968 292.434 549.739L290.071 543.644H278.733L276.37 549.739C276.282 549.95 276.14 550.144 275.946 550.302C275.752 550.461 275.506 550.549 275.206 550.549H272.561L282.665 525.308H286.139L296.243 550.549ZM279.685 541.178H289.119L285.151 530.909C284.887 530.275 284.64 529.482 284.393 528.531C284.27 529.007 284.129 529.465 284.023 529.852C283.899 530.257 283.776 530.61 283.652 530.927L279.685 541.178Z" fill="black"/>
<path d="M322.747 537.937C322.747 539.822 322.447 541.548 321.847 543.098C321.248 544.648 320.401 545.969 319.308 547.079C318.215 548.189 316.91 549.034 315.376 549.651C313.842 550.267 312.149 550.549 310.297 550.549H300.845V525.308H310.297C312.149 525.308 313.842 525.607 315.376 526.224C316.91 526.822 318.215 527.686 319.308 528.795C320.401 529.905 321.248 531.226 321.847 532.776C322.447 534.326 322.747 536.052 322.747 537.937ZM319.237 537.937C319.237 536.387 319.026 534.996 318.603 533.78C318.179 532.565 317.58 531.526 316.804 530.68C316.028 529.835 315.094 529.183 313.983 528.742C312.872 528.302 311.655 528.073 310.297 528.073H304.284V547.784H310.297C311.655 547.784 312.872 547.555 313.983 547.114C315.094 546.674 316.028 546.022 316.804 545.194C317.58 544.366 318.179 543.327 318.603 542.112C319.026 540.896 319.237 539.505 319.237 537.955V537.937Z" fill="black"/>
<path d="M33.4033 616.497V625.939H30V600.697H37.4591C39.0638 600.697 40.4568 600.873 41.6383 601.243C42.8198 601.613 43.7896 602.142 44.5831 602.829C45.359 603.516 45.9409 604.326 46.3112 605.295C46.6992 606.263 46.8755 607.338 46.8755 608.518C46.8755 609.698 46.6639 610.773 46.2583 611.742C45.8528 612.71 45.2356 613.556 44.4421 614.26C43.6485 614.965 42.661 615.511 41.4972 615.899C40.3334 616.286 38.9756 616.48 37.4591 616.48H33.4033V616.497ZM33.4033 613.785H37.4591C38.429 613.785 39.293 613.661 40.0336 613.397C40.7742 613.133 41.4091 612.781 41.9205 612.305C42.4318 611.847 42.8021 611.284 43.0666 610.632C43.3311 609.98 43.4546 609.275 43.4546 608.5C43.4546 606.898 42.9608 605.629 41.9734 604.731C40.9859 603.833 39.4694 603.375 37.4591 603.375H33.4033V613.767V613.785Z" fill="#6D44BC"/>
<path d="M56.3626 615.405V625.939H52.9592V600.697H60.1009C61.7056 600.697 63.0811 600.856 64.2449 601.173C65.4087 601.49 66.3786 601.965 67.1368 602.582C67.8951 603.199 68.4593 603.921 68.8296 604.784C69.1999 605.647 69.3763 606.616 69.3763 607.673C69.3763 608.571 69.2352 609.399 68.9531 610.174C68.6709 610.949 68.2654 611.636 67.7363 612.27C67.2073 612.886 66.5549 613.415 65.779 613.838C65.0031 614.278 64.1391 614.595 63.1692 614.824C63.5924 615.071 63.9627 615.423 64.2978 615.899L71.6687 625.921H68.6357C68.0185 625.921 67.56 625.675 67.2603 625.199L60.7005 616.18C60.5065 615.899 60.2773 615.687 60.048 615.581C59.8188 615.458 59.4661 615.388 58.99 615.388H56.3978L56.3626 615.405ZM56.3626 612.922H59.9422C60.9474 612.922 61.8114 612.798 62.5873 612.552C63.3456 612.305 63.9804 611.97 64.4917 611.53C65.0031 611.09 65.391 610.561 65.6379 609.945C65.8848 609.328 66.0259 608.659 66.0259 607.919C66.0259 606.422 65.5321 605.277 64.527 604.52C63.5219 603.762 62.0583 603.375 60.1009 603.375H56.3626V612.904V612.922Z" fill="#6D44BC"/>
<path d="M99.389 613.326C99.389 615.211 99.0892 616.955 98.4896 618.54C97.8901 620.126 97.0436 621.482 95.9503 622.609C94.857 623.754 93.5345 624.635 92.018 625.269C90.4839 625.903 88.791 626.203 86.9219 626.203C85.0527 626.203 83.3775 625.886 81.8433 625.269C80.3092 624.635 79.0043 623.754 77.911 622.609C76.8177 621.464 75.9713 620.108 75.3718 618.54C74.7722 616.955 74.4724 615.229 74.4724 613.326C74.4724 611.424 74.7722 609.698 75.3718 608.113C75.9713 606.527 76.8177 605.171 77.911 604.026C79.0043 602.881 80.3092 602 81.8433 601.366C83.3775 600.732 85.0703 600.415 86.9219 600.415C88.7734 600.415 90.4839 600.732 92.018 601.366C93.5522 602 94.857 602.899 95.9503 604.026C97.0436 605.171 97.8901 606.527 98.4896 608.113C99.0892 609.698 99.389 611.424 99.389 613.326ZM95.8798 613.326C95.8798 611.776 95.6682 610.385 95.245 609.152C94.8218 607.919 94.2223 606.88 93.4464 606.016C92.6705 605.171 91.7359 604.519 90.625 604.061C89.514 603.603 88.2797 603.374 86.9219 603.374C85.5641 603.374 84.3473 603.603 83.2364 604.061C82.1255 604.519 81.1909 605.171 80.415 606.016C79.6391 606.862 79.0219 607.919 78.5987 609.152C78.1755 610.385 77.9639 611.776 77.9639 613.326C77.9639 614.876 78.1755 616.268 78.5987 617.501C79.0219 618.734 79.6215 619.773 80.415 620.619C81.2085 621.464 82.1431 622.116 83.2364 622.574C84.3473 623.032 85.5641 623.243 86.9219 623.243C88.2797 623.243 89.514 623.014 90.625 622.574C91.7359 622.116 92.6705 621.464 93.4464 620.619C94.2223 619.773 94.8218 618.734 95.245 617.501C95.6682 616.268 95.8798 614.876 95.8798 613.326Z" fill="#6D44BC"/>
<path d="M121.043 600.697V603.48H108.911V612.305H119.28V615.088H108.911V625.939H105.473V600.697H121.043Z" fill="#6D44BC"/>
<path d="M142.415 600.697V603.48H130.283V611.865H140.105V614.542H130.283V623.156H142.415V625.939H126.845V600.697H142.415Z" fill="#6D44BC"/>
<path d="M161.689 604.643C161.583 604.819 161.478 604.942 161.354 605.03C161.231 605.118 161.09 605.171 160.896 605.171C160.702 605.171 160.455 605.065 160.19 604.872C159.926 604.678 159.591 604.449 159.185 604.202C158.78 603.956 158.286 603.744 157.722 603.533C157.157 603.321 156.47 603.233 155.658 603.233C154.9 603.233 154.212 603.339 153.631 603.533C153.049 603.744 152.555 604.008 152.167 604.361C151.779 604.713 151.479 605.136 151.285 605.611C151.091 606.087 150.985 606.598 150.985 607.161C150.985 607.866 151.162 608.447 151.497 608.923C151.832 609.398 152.308 609.786 152.872 610.103C153.437 610.438 154.089 610.72 154.812 610.966C155.535 611.213 156.276 611.459 157.034 611.706C157.792 611.953 158.533 612.252 159.256 612.587C159.979 612.904 160.631 613.326 161.195 613.82C161.76 614.313 162.218 614.912 162.571 615.634C162.924 616.356 163.082 617.237 163.082 618.276C163.082 619.386 162.888 620.425 162.518 621.394C162.148 622.363 161.601 623.208 160.878 623.913C160.155 624.635 159.273 625.199 158.215 625.604C157.157 626.009 155.976 626.22 154.618 626.22C152.978 626.22 151.497 625.921 150.157 625.322C148.817 624.723 147.653 623.93 146.7 622.926L147.688 621.306C147.776 621.182 147.9 621.059 148.023 620.971C148.146 620.883 148.305 620.83 148.464 620.83C148.711 620.83 148.993 620.971 149.31 621.235C149.628 621.5 150.033 621.781 150.509 622.116C150.985 622.433 151.567 622.715 152.237 622.997C152.908 623.261 153.736 623.384 154.706 623.384C155.517 623.384 156.24 623.279 156.875 623.05C157.51 622.821 158.057 622.521 158.497 622.116C158.938 621.711 159.273 621.218 159.52 620.654C159.749 620.09 159.873 619.456 159.873 618.769C159.873 618.012 159.697 617.378 159.361 616.902C159.009 616.409 158.55 616.004 158.004 615.669C157.457 615.334 156.787 615.07 156.064 614.824C155.341 614.595 154.6 614.366 153.842 614.119C153.084 613.872 152.343 613.608 151.62 613.274C150.897 612.957 150.245 612.551 149.681 612.041C149.116 611.53 148.658 610.896 148.323 610.138C147.97 609.381 147.811 608.447 147.811 607.338C147.811 606.439 147.988 605.576 148.323 604.748C148.675 603.92 149.169 603.181 149.822 602.529C150.474 601.877 151.285 601.366 152.255 600.979C153.225 600.591 154.336 600.397 155.606 600.397C157.016 600.397 158.304 600.626 159.467 601.067C160.631 601.507 161.654 602.159 162.518 603.004L161.689 604.625V604.643Z" fill="#6D44BC"/>
<path d="M172.904 625.939H169.483V600.697H172.904V625.939Z" fill="#6D44BC"/>
<path d="M204.557 613.326C204.557 615.211 204.257 616.955 203.657 618.54C203.058 620.126 202.211 621.482 201.118 622.609C200.025 623.754 198.702 624.635 197.186 625.269C195.652 625.903 193.959 626.203 192.09 626.203C190.22 626.203 188.545 625.886 187.011 625.269C185.477 624.635 184.172 623.754 183.079 622.609C181.985 621.464 181.139 620.108 180.539 618.54C179.94 616.955 179.64 615.229 179.64 613.326C179.64 611.424 179.94 609.698 180.539 608.113C181.139 606.527 181.985 605.171 183.079 604.026C184.172 602.881 185.477 602 187.011 601.366C188.545 600.732 190.238 600.415 192.09 600.415C193.941 600.415 195.652 600.732 197.186 601.366C198.72 602 200.025 602.899 201.118 604.026C202.211 605.171 203.058 606.527 203.657 608.113C204.257 609.698 204.557 611.424 204.557 613.326ZM201.048 613.326C201.048 611.776 200.836 610.385 200.413 609.152C199.99 607.919 199.39 606.88 198.614 606.016C197.838 605.171 196.904 604.519 195.793 604.061C194.682 603.603 193.447 603.374 192.09 603.374C190.732 603.374 189.515 603.603 188.404 604.061C187.293 604.519 186.359 605.171 185.583 606.016C184.807 606.862 184.19 607.919 183.766 609.152C183.343 610.385 183.132 611.776 183.132 613.326C183.132 614.876 183.343 616.268 183.766 617.501C184.19 618.734 184.789 619.773 185.583 620.619C186.376 621.464 187.311 622.116 188.404 622.574C189.515 623.032 190.732 623.243 192.09 623.243C193.447 623.243 194.682 623.014 195.793 622.574C196.904 622.116 197.838 621.464 198.614 620.619C199.39 619.773 199.99 618.734 200.413 617.501C200.836 616.268 201.048 614.876 201.048 613.326Z" fill="#6D44BC"/>
<path d="M213.092 600.803C213.233 600.873 213.409 601.032 213.603 601.279L228.239 620.302C228.204 620.003 228.186 619.703 228.169 619.421C228.151 619.14 228.169 618.858 228.169 618.576V600.697H231.166V625.939H229.438C229.174 625.939 228.944 625.886 228.768 625.798C228.592 625.71 228.398 625.551 228.221 625.322L213.603 606.316C213.621 606.616 213.638 606.898 213.656 607.179C213.656 607.461 213.656 607.725 213.656 607.954V625.939H210.658V600.697H212.422C212.721 600.697 212.951 600.732 213.092 600.803Z" fill="#6D44BC"/>
<path d="M259.504 625.939H256.859C256.559 625.939 256.312 625.868 256.118 625.71C255.924 625.551 255.783 625.357 255.695 625.128L253.332 619.034H241.993L239.63 625.128C239.542 625.34 239.401 625.534 239.207 625.692C239.013 625.851 238.766 625.939 238.467 625.939H235.822L245.926 600.697H249.4L259.504 625.939ZM242.946 616.568H252.38L248.412 606.299C248.148 605.665 247.901 604.872 247.654 603.921C247.53 604.396 247.389 604.837 247.283 605.242C247.16 605.647 247.037 605.999 246.913 606.299L242.946 616.55V616.568Z" fill="#6D44BC"/>
<path d="M267.527 623.068H278.46V625.939H264.106V600.697H267.527V623.068Z" fill="#6D44BC"/>
<path d="M287.7 625.939H284.279V600.697H287.7V625.939Z" fill="#6D44BC"/>
<path d="M308.825 604.643C308.72 604.819 308.614 604.942 308.49 605.03C308.367 605.118 308.226 605.171 308.032 605.171C307.838 605.171 307.591 605.065 307.327 604.872C307.062 604.678 306.727 604.449 306.321 604.202C305.916 603.956 305.422 603.744 304.858 603.533C304.294 603.321 303.606 603.233 302.795 603.233C302.036 603.233 301.349 603.339 300.767 603.533C300.185 603.744 299.691 604.008 299.303 604.361C298.915 604.713 298.615 605.136 298.421 605.611C298.227 606.087 298.122 606.598 298.122 607.161C298.122 607.866 298.298 608.447 298.633 608.923C298.968 609.398 299.444 609.786 300.008 610.103C300.573 610.438 301.225 610.72 301.948 610.966C302.671 611.213 303.412 611.459 304.17 611.706C304.928 611.953 305.669 612.252 306.392 612.587C307.115 612.904 307.767 613.326 308.332 613.82C308.896 614.313 309.354 614.912 309.707 615.634C310.06 616.356 310.218 617.237 310.218 618.276C310.218 619.386 310.024 620.425 309.654 621.394C309.284 622.363 308.737 623.208 308.014 623.913C307.291 624.635 306.41 625.199 305.352 625.604C304.293 626.009 303.112 626.22 301.754 626.22C300.114 626.22 298.633 625.921 297.293 625.322C295.953 624.723 294.789 623.93 293.837 622.926L294.824 621.306C294.912 621.182 295.036 621.059 295.159 620.971C295.283 620.883 295.441 620.83 295.6 620.83C295.847 620.83 296.129 620.971 296.446 621.235C296.764 621.5 297.169 621.781 297.646 622.116C298.122 622.433 298.704 622.715 299.374 622.997C300.044 623.261 300.873 623.384 301.842 623.384C302.654 623.384 303.377 623.279 304.011 623.05C304.646 622.821 305.193 622.521 305.634 622.116C306.075 621.711 306.41 621.218 306.656 620.654C306.886 620.09 307.009 619.456 307.009 618.769C307.009 618.012 306.833 617.378 306.498 616.902C306.145 616.409 305.687 616.004 305.14 615.669C304.593 615.334 303.923 615.07 303.2 614.824C302.477 614.595 301.737 614.366 300.978 614.119C300.22 613.872 299.479 613.608 298.757 613.274C298.034 612.957 297.381 612.551 296.817 612.041C296.253 611.53 295.794 610.896 295.459 610.138C295.106 609.381 294.948 608.447 294.948 607.338C294.948 606.439 295.124 605.576 295.459 604.748C295.812 603.92 296.305 603.181 296.958 602.529C297.61 601.877 298.421 601.366 299.391 600.979C300.361 600.591 301.472 600.397 302.742 600.397C304.152 600.397 305.44 600.626 306.604 601.067C307.767 601.507 308.79 602.159 309.654 603.004L308.825 604.625V604.643Z" fill="#6D44BC"/>
<path d="M328.857 617.695C328.981 618.012 329.104 618.312 329.228 618.629C329.351 618.294 329.475 617.995 329.598 617.695C329.721 617.396 329.88 617.096 330.039 616.779L338.591 601.261C338.75 600.997 338.909 600.821 339.067 600.768C339.226 600.715 339.473 600.68 339.773 600.68H342.294V625.921H339.297V607.373C339.297 607.127 339.297 606.862 339.297 606.581C339.297 606.299 339.332 606.017 339.349 605.717L330.691 621.5C330.391 622.028 329.986 622.293 329.457 622.293H328.963C328.434 622.293 328.029 622.028 327.729 621.5L318.877 605.665C318.912 605.964 318.947 606.263 318.947 606.563C318.965 606.862 318.982 607.127 318.982 607.373V625.921H315.985V600.68H318.506C318.806 600.68 319.053 600.715 319.212 600.768C319.37 600.821 319.529 600.997 319.688 601.261L328.416 616.797C328.575 617.079 328.716 617.378 328.857 617.695Z" fill="#6D44BC"/>
<path d="M373.312 613.326C373.312 615.211 373.012 616.955 372.413 618.54C371.813 620.126 370.967 621.482 369.873 622.609C368.78 623.754 367.458 624.635 365.941 625.269C364.407 625.903 362.714 626.203 360.845 626.203C358.976 626.203 357.301 625.886 355.766 625.269C354.232 624.635 352.927 623.754 351.834 622.609C350.741 621.464 349.894 620.108 349.295 618.54C348.695 616.955 348.396 615.229 348.396 613.326C348.396 611.424 348.695 609.698 349.295 608.113C349.894 606.527 350.741 605.171 351.834 604.026C352.927 602.881 354.232 602 355.766 601.366C357.301 600.732 358.993 600.415 360.845 600.415C362.696 600.415 364.407 600.732 365.941 601.366C367.475 602 368.78 602.899 369.873 604.026C370.967 605.171 371.813 606.527 372.413 608.113C373.012 609.698 373.312 611.424 373.312 613.326ZM369.803 613.326C369.803 611.776 369.591 610.385 369.168 609.152C368.745 607.919 368.145 606.88 367.369 606.016C366.594 605.171 365.659 604.519 364.548 604.061C363.437 603.603 362.203 603.374 360.845 603.374C359.487 603.374 358.27 603.603 357.16 604.061C356.049 604.519 355.114 605.171 354.338 606.016C353.562 606.862 352.945 607.919 352.522 609.152C352.099 610.385 351.887 611.776 351.887 613.326C351.887 614.876 352.099 616.268 352.522 617.501C352.945 618.734 353.545 619.773 354.338 620.619C355.132 621.464 356.066 622.116 357.16 622.574C358.27 623.032 359.487 623.243 360.845 623.243C362.203 623.243 363.437 623.014 364.548 622.574C365.659 622.116 366.594 621.464 367.369 620.619C368.145 619.773 368.745 618.734 369.168 617.501C369.591 616.268 369.803 614.876 369.803 613.326Z" fill="#6D44BC"/>
<path d="M113.291 696.114C113.485 696.114 113.644 696.185 113.803 696.343L115.143 697.805C114.103 699.003 112.851 699.936 111.369 700.606C109.888 701.275 108.125 701.61 106.044 701.61C104.228 701.61 102.57 701.293 101.089 700.659C99.6076 700.025 98.3379 699.144 97.2975 698.016C96.2571 696.889 95.446 695.515 94.8641 693.948C94.2822 692.362 94 690.618 94 688.716C94 686.814 94.3174 685.07 94.917 683.485C95.5342 681.899 96.3982 680.543 97.5268 679.398C98.6377 678.253 99.9779 677.372 101.53 676.756C103.081 676.122 104.81 675.805 106.696 675.805C108.583 675.805 110.153 676.087 111.51 676.668C112.851 677.249 114.05 678.024 115.09 679.01L113.979 680.578C113.891 680.701 113.803 680.79 113.697 680.86C113.591 680.93 113.432 680.983 113.238 680.983C113.08 680.983 112.921 680.93 112.762 680.825C112.586 680.719 112.392 680.578 112.145 680.402C111.916 680.244 111.634 680.067 111.316 679.874C110.999 679.68 110.629 679.504 110.188 679.345C109.747 679.187 109.253 679.046 108.671 678.922C108.089 678.817 107.437 678.764 106.679 678.764C105.321 678.764 104.087 678.993 102.976 679.451C101.847 679.909 100.877 680.578 100.066 681.424C99.2549 682.287 98.62 683.326 98.1792 684.559C97.7207 685.792 97.4915 687.166 97.4915 688.698C97.4915 690.231 97.7207 691.675 98.1792 692.908C98.6377 694.141 99.2549 695.181 100.031 696.026C100.807 696.872 101.741 697.523 102.817 697.981C103.893 698.422 105.039 698.651 106.273 698.651C107.031 698.651 107.701 698.598 108.301 698.51C108.901 698.422 109.447 698.281 109.959 698.105C110.47 697.911 110.946 697.682 111.387 697.382C111.828 697.083 112.269 696.748 112.709 696.361C112.903 696.185 113.097 696.097 113.291 696.097V696.114Z" fill="black"/>
<path d="M144.521 688.716C144.521 690.601 144.221 692.345 143.621 693.93C143.022 695.515 142.175 696.872 141.082 698.017C139.989 699.161 138.666 700.042 137.15 700.659C135.616 701.293 133.923 701.61 132.054 701.61C130.185 701.61 128.509 701.293 126.975 700.659C125.441 700.025 124.136 699.144 123.043 698.017C121.95 696.889 121.103 695.515 120.504 693.93C119.904 692.345 119.604 690.618 119.604 688.716C119.604 686.814 119.904 685.088 120.504 683.502C121.103 681.917 121.95 680.561 123.043 679.416C124.136 678.271 125.441 677.372 126.975 676.738C128.509 676.104 130.202 675.787 132.054 675.787C133.905 675.787 135.616 676.104 137.15 676.738C138.684 677.372 139.989 678.271 141.082 679.416C142.175 680.561 143.022 681.917 143.621 683.502C144.221 685.088 144.521 686.814 144.521 688.716ZM141.012 688.716C141.012 687.166 140.8 685.774 140.377 684.541C139.954 683.308 139.354 682.269 138.578 681.406C137.802 680.543 136.868 679.891 135.757 679.433C134.646 678.975 133.411 678.746 132.054 678.746C130.696 678.746 129.479 678.975 128.368 679.433C127.257 679.891 126.323 680.543 125.547 681.406C124.771 682.269 124.154 683.308 123.731 684.541C123.307 685.774 123.096 687.166 123.096 688.716C123.096 690.266 123.307 691.658 123.731 692.891C124.154 694.124 124.753 695.163 125.547 696.008C126.34 696.854 127.275 697.506 128.368 697.964C129.479 698.422 130.696 698.651 132.054 698.651C133.411 698.651 134.646 698.422 135.757 697.964C136.868 697.506 137.802 696.854 138.578 696.008C139.354 695.163 139.954 694.124 140.377 692.891C140.8 691.658 141.012 690.284 141.012 688.716Z" fill="black"/>
<path d="M153.056 676.193C153.197 676.263 153.373 676.422 153.567 676.651L168.203 695.674C168.168 695.375 168.15 695.075 168.132 694.793C168.132 694.512 168.132 694.23 168.132 693.966V676.087H171.13V701.328H169.402C169.138 701.328 168.908 701.276 168.732 701.187C168.556 701.099 168.362 700.941 168.185 700.712L153.567 681.706C153.585 682.005 153.602 682.287 153.62 682.569C153.62 682.851 153.62 683.115 153.62 683.344V701.328H150.622V676.087H152.385C152.685 676.087 152.914 676.122 153.056 676.21V676.193Z" fill="black"/>
<path d="M194.248 676.087V678.87H182.116V687.695H192.485V690.478H182.116V701.328H178.677V676.087H194.248Z" fill="black"/>
<path d="M204.105 701.328H200.684V676.087H204.105V701.328Z" fill="black"/>
<path d="M233.078 701.328H230.433C230.133 701.328 229.886 701.258 229.692 701.099C229.498 700.941 229.357 700.747 229.269 700.518L226.906 694.424H215.567L213.204 700.518C213.116 700.729 212.975 700.923 212.781 701.082C212.587 701.24 212.34 701.328 212.041 701.328H209.396L219.5 676.087H222.974L233.078 701.328ZM216.52 691.958H225.954L221.986 681.688C221.722 681.054 221.475 680.262 221.228 679.31C221.104 679.786 220.963 680.244 220.857 680.631C220.734 681.037 220.611 681.389 220.487 681.706L216.52 691.958Z" fill="black"/>
<path d="M240.131 676.193C240.272 676.263 240.449 676.422 240.643 676.651L255.279 695.674C255.243 695.375 255.226 695.075 255.208 694.793C255.208 694.512 255.208 694.23 255.208 693.966V676.087H258.206V701.328H256.478C256.213 701.328 255.984 701.276 255.808 701.187C255.631 701.099 255.437 700.941 255.261 700.712L240.643 681.706C240.66 682.005 240.678 682.287 240.695 682.569C240.695 682.851 240.695 683.115 240.695 683.344V701.328H237.698V676.087H239.461C239.761 676.087 239.99 676.122 240.131 676.21V676.193Z" fill="black"/>
<path d="M283.351 676.087V677.355C283.351 677.76 283.228 678.13 282.981 678.482L268.68 698.545H283.105V701.328H264.201V699.99C264.201 699.637 264.307 699.303 264.536 698.986L278.855 678.87H264.871V676.087H283.351Z" fill="black"/>
<path d="M309.961 701.328H307.316C307.016 701.328 306.769 701.258 306.575 701.099C306.381 700.941 306.24 700.747 306.152 700.518L303.789 694.424H292.451L290.088 700.518C290 700.729 289.858 700.923 289.665 701.082C289.471 701.24 289.224 701.328 288.924 701.328H286.279L296.383 676.087H299.857L309.961 701.328ZM293.403 691.958H302.837L298.869 681.688C298.605 681.054 298.358 680.262 298.111 679.31C297.988 679.786 297.847 680.244 297.741 680.631C297.617 681.037 297.494 681.389 297.37 681.706L293.403 691.958Z" fill="black"/>
<path d="M106.571 751.478V754.261H94.4386V762.645H104.261V765.322H94.4386V773.936H106.571V776.719H91V751.478H106.571Z" fill="#6D44BC"/>
<path d="M118.773 763.755L110.432 751.478H113.836C114.083 751.478 114.259 751.513 114.382 751.601C114.506 751.689 114.612 751.795 114.7 751.953L121.295 762.064C121.383 761.817 121.506 761.553 121.665 761.254L127.89 752.024C127.996 751.865 128.101 751.724 128.225 751.618C128.348 751.513 128.489 751.478 128.666 751.478H131.928L123.552 763.596L132.21 776.719H128.824C128.56 776.719 128.366 776.649 128.225 776.508C128.084 776.367 127.96 776.226 127.855 776.067L121.083 765.481C120.995 765.728 120.889 765.957 120.766 766.186L114.171 776.067C114.065 776.226 113.942 776.384 113.8 776.508C113.659 776.649 113.465 776.719 113.218 776.719H110.044L118.738 763.755H118.773Z" fill="#6D44BC"/>
<path d="M154.27 771.505C154.464 771.505 154.623 771.575 154.781 771.734L156.121 773.196C155.081 774.393 153.829 775.327 152.348 775.996C150.867 776.666 149.103 777 147.022 777C145.206 777 143.549 776.683 142.067 776.049C140.586 775.415 139.316 774.534 138.276 773.407C137.236 772.28 136.425 770.906 135.843 769.338C135.261 767.753 134.979 766.009 134.979 764.107C134.979 762.204 135.296 760.461 135.896 758.875C136.513 757.29 137.377 755.934 138.505 754.789C139.616 753.644 140.956 752.763 142.508 752.146C144.06 751.512 145.788 751.195 147.675 751.195C149.562 751.195 151.131 751.477 152.489 752.058C153.829 752.64 155.028 753.415 156.069 754.401L154.958 755.969C154.869 756.092 154.781 756.18 154.675 756.251C154.57 756.321 154.411 756.374 154.217 756.374C154.058 756.374 153.9 756.321 153.741 756.215C153.565 756.11 153.371 755.969 153.124 755.793C152.877 755.617 152.612 755.458 152.295 755.264C151.977 755.07 151.607 754.894 151.166 754.736C150.726 754.577 150.232 754.436 149.65 754.331C149.068 754.225 148.415 754.155 147.657 754.155C146.299 754.155 145.065 754.384 143.954 754.859C142.826 755.317 141.856 755.986 141.045 756.832C140.233 757.695 139.599 758.734 139.158 759.967C138.699 761.2 138.47 762.574 138.47 764.107C138.47 765.639 138.699 767.084 139.158 768.317C139.616 769.55 140.233 770.589 141.009 771.434C141.785 772.28 142.72 772.932 143.795 773.372C144.871 773.812 146.017 774.041 147.252 774.041C148.01 774.041 148.68 773.988 149.28 773.9C149.879 773.812 150.426 773.671 150.937 773.478C151.448 773.284 151.925 773.055 152.365 772.773C152.806 772.491 153.247 772.139 153.688 771.734C153.882 771.558 154.076 771.47 154.27 771.47V771.505Z" fill="#6D44BC"/>
<path d="M177.599 751.478V754.261H165.467V762.645H175.289V765.322H165.467V773.936H177.599V776.719H162.029V751.478H177.599Z" fill="#6D44BC"/>
<path d="M187.351 773.848H198.284V776.719H183.93V751.478H187.351V773.848Z" fill="#6D44BC"/>
<path d="M219.039 751.478V754.261H206.907V762.645H216.729V765.322H206.907V773.936H219.039V776.719H203.468V751.478H219.039Z" fill="#6D44BC"/>
<path d="M227.82 751.583C227.962 751.654 228.138 751.812 228.332 752.059L242.968 771.082C242.933 770.783 242.915 770.483 242.897 770.202C242.897 769.92 242.897 769.638 242.897 769.374V751.495H245.895V776.737H244.167C243.902 776.737 243.673 776.684 243.497 776.596C243.32 776.508 243.127 776.349 242.95 776.12L228.332 757.114C228.349 757.414 228.367 757.695 228.385 757.977C228.385 758.259 228.385 758.523 228.385 758.752V776.737H225.387V751.495H227.15C227.45 751.495 227.679 751.53 227.82 751.601V751.583Z" fill="#6D44BC"/>
<path d="M271.253 771.505C271.447 771.505 271.605 771.575 271.764 771.734L273.104 773.196C272.064 774.393 270.812 775.327 269.33 775.996C267.849 776.666 266.086 777 264.005 777C262.189 777 260.531 776.683 259.05 776.049C257.569 775.415 256.299 774.534 255.259 773.407C254.218 772.28 253.407 770.906 252.825 769.338C252.243 767.753 251.961 766.009 251.961 764.107C251.961 762.204 252.279 760.461 252.878 758.875C253.495 757.29 254.359 755.934 255.488 754.789C256.599 753.644 257.939 752.763 259.491 752.146C261.043 751.512 262.771 751.195 264.658 751.195C266.544 751.195 268.114 751.477 269.472 752.058C270.812 752.64 272.011 753.415 273.051 754.401L271.94 755.969C271.852 756.092 271.764 756.18 271.658 756.251C271.552 756.321 271.394 756.374 271.2 756.374C271.041 756.374 270.882 756.321 270.724 756.215C270.547 756.11 270.353 755.969 270.106 755.793C269.859 755.617 269.595 755.458 269.278 755.264C268.96 755.07 268.59 754.894 268.149 754.736C267.708 754.577 267.214 754.436 266.632 754.331C266.051 754.225 265.398 754.155 264.64 754.155C263.282 754.155 262.048 754.384 260.937 754.859C259.808 755.317 258.838 755.986 258.027 756.832C257.216 757.695 256.581 758.734 256.14 759.967C255.682 761.2 255.453 762.574 255.453 764.107C255.453 765.639 255.682 767.084 256.14 768.317C256.599 769.55 257.216 770.589 257.992 771.434C258.768 772.28 259.702 772.932 260.778 773.372C261.854 773.812 263 774.041 264.234 774.041C264.993 774.041 265.663 773.988 266.262 773.9C266.862 773.812 267.408 773.671 267.92 773.478C268.431 773.284 268.907 773.055 269.348 772.773C269.789 772.491 270.23 772.139 270.671 771.734C270.865 771.558 271.059 771.47 271.253 771.47V771.505Z" fill="#6D44BC"/>
<path d="M283.067 776.719H279.646V751.478H283.067V776.719Z" fill="#6D44BC"/>
<path d="M312.039 776.719H309.394C309.094 776.719 308.848 776.649 308.654 776.49C308.46 776.332 308.319 776.138 308.23 775.909L305.868 769.814H294.529L292.166 775.909C292.078 776.12 291.937 776.314 291.743 776.472C291.549 776.631 291.302 776.719 291.002 776.719H288.357L298.461 751.478H301.935L312.039 776.719ZM295.481 767.348H304.915L300.948 757.079C300.683 756.445 300.436 755.652 300.189 754.701C300.066 755.177 299.925 755.635 299.819 756.022C299.696 756.427 299.572 756.779 299.449 757.079L295.481 767.331V767.348Z" fill="#6D44BC"/>
<path d="M200.822 308.809C286.19 308.809 355.396 239.68 355.396 154.404C355.396 69.1292 286.19 0 200.822 0C115.453 0 46.2476 69.1292 46.2476 154.404C46.2476 239.68 115.453 308.809 200.822 308.809Z" fill="#6D44BC"/>
<mask id="mask0_1612_686" style="mask-type:luminance" maskUnits="userSpaceOnUse" x="46" y="0" width="310" height="309">
<path d="M200.822 308.809C286.19 308.809 355.396 239.68 355.396 154.404C355.396 69.1292 286.19 0 200.822 0C115.453 0 46.2476 69.1292 46.2476 154.404C46.2476 239.68 115.453 308.809 200.822 308.809Z" fill="white"/>
</mask>
<g mask="url(#mask0_1612_686)">
<path d="M145.743 0L46.2476 82.9302V0H145.743Z" fill="#6D44BC"/>
<path d="M149.955 0L46.2476 86.449V82.9302L145.743 0H149.955Z" fill="#6D44BC"/>
<path d="M154.179 0L46.2476 89.9678V86.449L149.955 0H154.179Z" fill="#6D44BC"/>
<path d="M158.39 0L46.2476 93.4866V89.9678L154.179 0H158.39Z" fill="#6D44BC"/>
<path d="M162.615 0L46.2476 96.9922V93.4866L158.39 0H162.615Z" fill="#6D44BC"/>
<path d="M166.84 0L46.2476 100.511V96.9922L162.615 0H166.84Z" fill="#6D44BC"/>
<path d="M171.051 0L46.2476 104.03V100.511L166.84 0H171.051Z" fill="#6D44BC"/>
<path d="M175.275 0L46.2476 107.549V104.03L171.051 0H175.275Z" fill="#6D44BC"/>
<path d="M179.487 0L46.2476 111.067V107.549L175.275 0H179.487Z" fill="#6D44BC"/>
<path d="M183.711 0L46.2476 114.586V111.067L179.487 0H183.711Z" fill="#6D44BC"/>
<path d="M187.936 0L46.2476 118.092V114.586L183.711 0H187.936Z" fill="#6D44BC"/>
<path d="M192.147 0L46.2476 121.611V118.092L187.936 0H192.147Z" fill="#6D44BC"/>
<path d="M196.372 0L46.2476 125.129V121.611L192.147 0H196.372Z" fill="#6D44BC"/>
<path d="M200.583 0L46.2476 128.648V125.129L196.372 0H200.583Z" fill="#6D44BC"/>
<path d="M204.808 0L46.2476 132.167V128.648L200.583 0H204.808Z" fill="#6D44BC"/>
<path d="M209.019 0L46.2476 135.686V132.167L204.808 0H209.019Z" fill="#6D44BC"/>
<path d="M213.244 0L46.2476 139.205V135.686L209.019 0H213.244Z" fill="#6D44BC"/>
<path d="M217.468 0L46.2476 142.71V139.205L213.244 0H217.468Z" fill="#6D44BC"/>
<path d="M221.679 0L46.2476 146.229V142.71L217.468 0H221.679Z" fill="#6D44BC"/>
<path d="M225.904 0L46.2476 149.748V146.229L221.679 0H225.904Z" fill="#6D44BC"/>
<path d="M230.115 0L46.2476 153.267V149.748L225.904 0H230.115Z" fill="#6D44BC"/>
<path d="M234.34 0L46.2476 156.785V153.267L230.115 0H234.34Z" fill="#6D44BC"/>
<path d="M238.564 0L46.2476 160.304V156.786L234.34 0H238.564Z" fill="#6D44BC"/>
<path d="M242.776 0L46.2476 163.823V160.304L238.564 0H242.776Z" fill="#6D44BC"/>
<path d="M247 0L46.2476 167.329V163.823L242.776 0H247Z" fill="#6D44BC"/>
<path d="M251.212 0L46.2476 170.848V167.329L247 0H251.212Z" fill="#6D44BC"/>
<path d="M255.436 0L46.2476 174.366V170.848L251.212 0H255.436Z" fill="#6D44BC"/>
<path d="M259.661 0L46.2476 177.885V174.366L255.436 0H259.661Z" fill="#6D44BC"/>
<path d="M263.872 0L46.2476 181.404V177.885L259.661 0H263.872Z" fill="#6D44BC"/>
<path d="M268.097 0L46.2476 184.923V181.404L263.872 0H268.097Z" fill="#6D44BC"/>
<path d="M272.308 0L46.2476 188.428V184.923L268.097 0H272.308Z" fill="#6D44BC"/>
<path d="M276.533 0L46.2476 191.947V188.428L272.308 0H276.533Z" fill="#6D44BC"/>
<path d="M280.744 0L46.2476 195.466V191.947L276.533 0H280.744Z" fill="#6D44BC"/>
<path d="M284.968 0L46.2476 198.985V195.466L280.744 0H284.968Z" fill="#6D44BC"/>
<path d="M289.193 0L46.2476 202.504V198.985L284.968 0H289.193Z" fill="#6D44BC"/>
<path d="M293.404 0L46.2476 206.022V202.504L289.193 0H293.404Z" fill="#6D44BC"/>
<path d="M297.629 0L46.2476 209.541V206.022L293.404 0H297.629Z" fill="#6D44BC"/>
<path d="M301.099 0L301.403 0.370401L46.2476 213.047V209.541L297.629 0H301.099Z" fill="#6D44BC"/>
<path d="M301.403 0.370117L303.138 2.43378L46.2476 216.565V213.046L301.403 0.370117Z" fill="#6D44BC"/>
<path d="M303.138 2.43359L304.873 4.51049L46.2476 220.084V216.565L303.138 2.43359Z" fill="#6D44BC"/>
<path d="M304.873 4.51074L306.608 6.58763L46.2476 223.603V220.084L304.873 4.51074Z" fill="#6D44BC"/>
<path d="M306.608 6.58789L308.329 8.65155L46.2476 227.122V223.603L306.608 6.58789Z" fill="#6D44BC"/>
<path d="M308.329 8.65137L310.064 10.7283L46.2476 230.641V227.122L308.329 8.65137Z" fill="#6D44BC"/>
<path d="M310.064 10.7285L311.799 12.8054L46.2476 234.16V230.641L310.064 10.7285Z" fill="#6D44BC"/>
<path d="M311.799 12.8057L313.534 14.8826L46.2476 237.666V234.16L311.799 12.8057Z" fill="#6D44BC"/>
<path d="M313.534 14.8818L315.269 16.9455L46.2476 241.184V237.665L313.534 14.8818Z" fill="#6D44BC"/>
<path d="M315.269 16.9463L316.99 19.0232L46.6846 244.333L46.2476 243.817V241.184L315.269 16.9463Z" fill="#6D44BC"/>
<path d="M317.005 19.0453L46.6841 244.341L48.4149 246.413L318.736 21.1174L317.005 19.0453Z" fill="#6D44BC"/>
<path d="M318.734 21.1195L48.4126 246.415L50.1434 248.487L320.465 23.1916L318.734 21.1195Z" fill="#6D44BC"/>
<path d="M320.461 23.2005L50.1396 248.496L51.8704 250.568L322.192 25.2727L320.461 23.2005Z" fill="#6D44BC"/>
<path d="M322.198 25.2728L51.8767 250.568L53.6075 252.64L323.929 27.3449L322.198 25.2728Z" fill="#6D44BC"/>
<path d="M323.926 27.3343L53.6052 252.63L55.336 254.702L325.657 29.4064L323.926 27.3343Z" fill="#6D44BC"/>
<path d="M325.663 29.4056L55.3423 254.701L57.0731 256.773L327.394 31.4777L325.663 29.4056Z" fill="#6D44BC"/>
<path d="M327.401 31.4779L57.0793 256.773L58.8101 258.846L329.131 33.55L327.401 31.4779Z" fill="#6D44BC"/>
<path d="M329.114 33.5716L58.793 258.867L60.5237 260.939L330.845 35.6437L329.114 33.5716Z" fill="#6D44BC"/>
<path d="M330.843 35.6332L60.5217 260.929L62.2525 263.001L332.574 37.7053L330.843 35.6332Z" fill="#6D44BC"/>
<path d="M332.58 37.7064L62.2588 263.002L63.9896 265.074L334.311 39.7785L332.58 37.7064Z" fill="#6D44BC"/>
<path d="M334.317 39.7777L63.9958 265.073L65.7266 267.145L336.048 41.8498L334.317 39.7777Z" fill="#6D44BC"/>
<path d="M336.044 41.8578L65.7227 267.153L67.4534 269.225L337.775 43.9299L336.044 41.8578Z" fill="#6D44BC"/>
<path d="M337.772 43.933L67.4512 269.229L69.1819 271.301L339.503 46.0051L337.772 43.933Z" fill="#6D44BC"/>
<path d="M339.509 46.0052L69.1882 271.301L70.919 273.373L341.24 48.0773L339.509 46.0052Z" fill="#6D44BC"/>
<path d="M341.246 48.0775L70.9253 273.373L72.6561 275.445L342.977 50.1496L341.246 48.0775Z" fill="#6D44BC"/>
<path d="M342.975 50.139L72.6541 275.435L74.3848 277.507L344.706 52.2111L342.975 50.139Z" fill="#6D44BC"/>
<path d="M344.702 52.2191L74.3809 277.515L76.1116 279.587L346.433 54.2912L344.702 52.2191Z" fill="#6D44BC"/>
<path d="M346.439 54.2914L76.1179 279.587L77.8487 281.659L348.17 56.3635L346.439 54.2914Z" fill="#6D44BC"/>
<path d="M348.176 56.3763L77.855 281.672L79.5858 283.744L349.907 58.4484L348.176 56.3763Z" fill="#6D44BC"/>
<path d="M349.905 58.4378L79.5837 283.733L81.3145 285.806L351.636 60.5099L349.905 58.4378Z" fill="#6D44BC"/>
<path d="M351.632 60.5189L81.3105 285.814L83.0413 287.887L353.363 62.591L351.632 60.5189Z" fill="#6D44BC"/>
<path d="M353.369 62.5901L83.0476 287.886L84.7784 289.958L355.1 64.6623L353.369 62.5901Z" fill="#6D44BC"/>
<path d="M355.091 64.6348L355.409 65.0052V67.889L86.5198 292.021L84.7849 289.944L355.091 64.6348Z" fill="#6D44BC"/>
<path d="M355.409 71.4085L88.2546 294.099L86.5198 292.022L355.409 67.8896V71.4085Z" fill="#6D44BC"/>
<path d="M355.409 74.927L89.9762 296.176L88.2546 294.099L355.409 71.4082V74.927Z" fill="#6D44BC"/>
<path d="M355.409 78.4456L91.7112 298.239L89.9763 296.175L355.409 74.9268V78.4456Z" fill="#6D44BC"/>
<path d="M355.409 81.9641L93.446 300.316L91.7112 298.239L355.409 78.4453V81.9641Z" fill="#6D44BC"/>
<path d="M355.409 85.4827L95.1809 302.392L93.446 300.315L355.409 81.9639V85.4827Z" fill="#6D44BC"/>
<path d="M355.409 89.0022L96.9158 304.457L95.1809 302.393L355.409 85.4834V89.0022Z" fill="#6D44BC"/>
<path d="M355.409 92.5075L98.6374 306.533L96.9158 304.456L355.409 89.002V92.5075Z" fill="#6D44BC"/>
<path d="M355.409 96.0266L100.372 308.61L98.6375 306.534L355.409 92.5078V96.0266Z" fill="#6D44BC"/>
<path d="M355.409 99.5452L104.345 308.822H100.544L100.372 308.61L355.409 96.0264V99.5452Z" fill="#6D44BC"/>
<path d="M355.409 103.064L108.557 308.822H104.345L355.409 99.5449V103.064Z" fill="#6D44BC"/>
<path d="M355.409 106.583L112.781 308.822H108.557L355.409 103.064V106.583Z" fill="#6D44BC"/>
<path d="M355.409 110.102L117.006 308.822H112.781L355.409 106.583V110.102Z" fill="#6D44BC"/>
<path d="M355.409 113.607L121.217 308.822H117.006L355.409 110.102V113.607Z" fill="#6D44BC"/>
<path d="M355.409 117.126L125.441 308.822H121.217L355.409 113.607V117.126Z" fill="#6D44BC"/>
<path d="M355.409 120.645L129.653 308.822H125.441L355.409 117.126V120.645Z" fill="#6D44BC"/>
<path d="M355.409 124.163L133.877 308.822H129.653L355.409 120.645V124.163Z" fill="#6D44BC"/>
<path d="M355.409 127.683L138.089 308.822H133.877L355.409 124.164V127.683Z" fill="#6D44BC"/>
<path d="M355.409 131.201L142.313 308.822H138.089L355.409 127.683V131.201Z" fill="#6D44BC"/>
<path d="M355.409 134.72L146.538 308.822H142.313L355.409 131.201V134.72Z" fill="#6D44BC"/>
<path d="M355.409 138.226L150.749 308.822H146.538L355.409 134.721V138.226Z" fill="#6D44BC"/>
<path d="M355.409 141.744L154.974 308.822H150.749L355.409 138.226V141.744Z" fill="#6D44BC"/>
<path d="M355.409 145.263L159.185 308.821H154.974L355.409 141.744V145.263Z" fill="#6D44BC"/>
<path d="M355.409 148.782L163.41 308.821H159.185L355.409 145.263V148.782Z" fill="#6D44BC"/>
<path d="M355.409 152.301L167.634 308.822H163.41L355.409 148.782V152.301Z" fill="#6D44BC"/>
<path d="M355.409 155.82L171.846 308.822H167.634L355.409 152.301V155.82Z" fill="#6D44BC"/>
<path d="M355.409 159.338L176.07 308.821H171.845L355.409 155.819V159.338Z" fill="#6D44BC"/>
<path d="M355.409 162.844L180.281 308.822H176.07L355.409 159.339V162.844Z" fill="#6D44BC"/>
<path d="M355.409 166.364L184.506 308.822H180.281L355.409 162.845V166.364Z" fill="#6D44BC"/>
<path d="M355.409 169.882L188.73 308.822H184.506L355.409 166.363V169.882Z" fill="#6D44BC"/>
<path d="M355.409 173.401L192.942 308.822H188.73L355.409 169.882V173.401Z" fill="#6D44BC"/>
<path d="M355.409 176.919L197.166 308.822H192.942L355.409 173.4V176.919Z" fill="#6D44BC"/>
<path d="M355.409 180.438L201.378 308.821H197.167L355.409 176.919V180.438Z" fill="#6D44BC"/>
<path d="M355.409 183.944L205.602 308.822H201.378L355.409 180.438V183.944Z" fill="#6D44BC"/>
<path d="M355.409 187.462L209.827 308.821H205.602L355.409 183.943V187.462Z" fill="#6D44BC"/>
<path d="M355.409 190.982L214.038 308.822H209.827L355.409 187.463V190.982Z" fill="#6D44BC"/>
<path d="M355.409 194.5L218.263 308.822H214.038L355.409 190.981V194.5Z" fill="#6D44BC"/>
<path d="M355.409 198.019L222.474 308.822H218.263L355.409 194.5V198.019Z" fill="#6D44BC"/>
<path d="M355.409 201.537L226.699 308.821H222.474L355.409 198.019V201.537Z" fill="#6D44BC"/>
<path d="M355.409 205.056L230.91 308.821H226.698L355.409 201.537V205.056Z" fill="#6D44BC"/>
<path d="M355.409 208.562L235.134 308.822H230.91L355.409 205.057V208.562Z" fill="#6D44BC"/>
<path d="M355.408 212.081L239.359 308.822H235.134L355.408 208.562V212.081Z" fill="#6D44BC"/>
<path d="M355.409 215.6L243.57 308.822H239.359L355.409 212.081V215.6Z" fill="#6D44BC"/>
<path d="M355.409 219.118L247.795 308.822H243.57L355.409 215.6V219.118Z" fill="#6D44BC"/>
<path d="M355.409 222.638L252.006 308.822H247.795L355.409 219.119V222.638Z" fill="#6D44BC"/>
<path d="M355.409 226.157L256.231 308.822H252.006L355.409 222.638V226.157Z" fill="#6D44BC"/>
<path d="M355.409 229.675L260.456 308.822H256.231L355.409 226.156V229.675Z" fill="#6D44BC"/>
<path d="M355.409 233.18L264.667 308.822H260.455L355.409 229.675V233.18Z" fill="#6D44BC"/>
<path d="M355.409 236.699L268.891 308.822H264.667L355.409 233.181V236.699Z" fill="#6D44BC"/>
<path d="M355.409 240.218L273.102 308.822H268.891L355.409 236.699V240.218Z" fill="#6D44BC"/>
<path d="M355.409 243.737L277.327 308.821H273.103L355.409 240.218V243.737Z" fill="#6D44BC"/>
<path d="M355.409 247.256L281.552 308.822H277.327L355.409 243.737V247.256Z" fill="#6D44BC"/>
<path d="M355.409 250.775L285.763 308.822H281.552L355.409 247.256V250.775Z" fill="#6D44BC"/>
<path d="M355.409 254.28L289.988 308.822H285.763L355.409 250.774V254.28Z" fill="#6D44BC"/>
<path d="M355.409 257.799L294.199 308.822H289.988L355.409 254.28V257.799Z" fill="#6D44BC"/>
<path d="M355.409 261.318L298.423 308.822H294.199L355.409 257.799V261.318Z" fill="#6D44BC"/>
<path d="M355.409 264.836L302.635 308.821H298.423L355.409 261.317V264.836Z" fill="#6D44BC"/>
<path d="M355.409 268.356L306.859 308.822H302.635L355.409 264.837V268.356Z" fill="#6D44BC"/>
<path d="M355.409 271.874L311.084 308.822H306.859L355.409 268.355V271.874Z" fill="#6D44BC"/>
<path d="M355.409 275.393L315.295 308.822H311.084L355.409 271.874V275.393Z" fill="#6D44BC"/>
<path d="M355.409 278.899L319.52 308.822H315.295L355.409 275.394V278.899Z" fill="#6D44BC"/>
<path d="M355.409 282.417L323.731 308.822H319.52L355.409 278.898V282.417Z" fill="#6D44BC"/>
<path d="M355.409 285.937L327.956 308.822H323.731L355.409 282.418V285.937Z" fill="#6D44BC"/>
<path d="M355.409 289.455L332.18 308.822H327.956L355.409 285.937V289.455Z" fill="#6D44BC"/>
<path d="M355.409 292.974L336.391 308.822H332.18L355.409 289.455V292.974Z" fill="#6D44BC"/>
<path d="M355.409 296.492L340.616 308.822H336.391L355.409 292.974V296.492Z" fill="#6D44BC"/>
<path d="M355.409 299.998L344.827 308.821H340.616L355.409 296.492V299.998Z" fill="#6D44BC"/>
<path d="M355.409 303.517L349.052 308.822H344.827L355.409 299.998V303.517Z" fill="#6D44BC"/>
<path d="M355.409 307.036L353.277 308.822H349.052L355.409 303.518V307.036Z" fill="#6D44BC"/>
<path d="M353.277 308.822L355.409 307.036V308.822H353.277Z" fill="#6D44BC"/>
</g>
<path d="M200.821 266.478C262.785 266.478 313.017 216.301 313.017 154.405C313.017 92.5087 262.785 42.332 200.821 42.332C138.857 42.332 88.6255 92.5087 88.6255 154.405C88.6255 216.301 138.857 266.478 200.821 266.478Z" fill="white"/>
<path d="M187.817 96.6494H178.613V99.5333L181.963 100.181L177.236 114.296L172.177 100.274L175.408 99.5333V96.6494H156.934V99.5333L159.847 100.129L170.799 126.506H176.322L186.453 100.168L190.134 99.5333V96.6494H187.804H187.817Z" fill="#1B1629"/>
<path d="M202.728 109.045C205.245 108.37 209.787 107.206 212.608 106.465V109.164C209.906 109.786 207.271 110.606 204.688 111.611C202.278 112.683 200.715 115.051 200.702 117.683C200.702 120.686 202.119 122.168 203.894 122.168C204.967 122.062 205.986 121.612 206.781 120.885L209.721 118.662L210.277 119.403L207.39 122.591C204.688 125.528 202.848 127.499 198.12 127.499C194.094 127.869 190.518 124.919 190.147 120.885C190.108 120.448 190.108 120.012 190.147 119.588C190.147 114.866 192.783 111.678 202.728 109.045ZM206.463 121.731V105.857C206.463 100.645 205.668 98.9913 201.801 98.9913C199.828 99.031 197.881 99.3088 195.974 99.785L200.888 97.2054V101.068C200.888 106.029 198.491 107.934 195.855 107.934C193.697 108.132 191.71 106.73 191.194 104.627C191.194 99.3484 196.292 95.6709 206.185 95.6709C214.647 95.6709 217.773 99.1632 217.773 107.563V121.599C217.733 122.128 218.13 122.591 218.66 122.644C218.713 122.644 218.766 122.644 218.819 122.644C219.309 122.644 219.746 122.406 220.474 121.295L222.249 122.274C221.123 125.766 217.667 127.962 214.025 127.486C210.357 127.962 206.979 125.382 206.476 121.718" fill="#1B1629"/>
<path d="M161.662 163.612C161.781 160.861 161.847 154.537 161.847 150.741V146.957C161.847 143.584 161.781 142.539 161.662 140.092L158.351 139.536V137.01L171.912 132.79L173.011 133.464L173.501 140.145V150.754C173.501 154.551 173.567 160.874 173.686 163.625H161.648L161.662 163.612ZM175.898 160.49V163.612H158.96V160.49L164.244 159.26H170.256L175.898 160.49ZM191.922 143.015V150.741C191.922 154.67 191.988 160.861 192.108 163.612H180.07C180.189 160.861 180.255 154.656 180.255 150.741V143.809C180.255 140.555 179.46 139.325 177.5 139.325C174.64 139.827 172.097 141.494 170.508 143.928H168.111V139.51H172.653L170.442 141.468C175.289 134.364 178.242 132.776 182.652 132.776C187.989 132.776 191.922 136.335 191.922 143.015ZM188.611 159.273L194.571 160.504V163.625H177.567V160.49L182.665 159.26H188.625L188.611 159.273Z" fill="#1B1629"/>
<path d="M199.961 163.613C200.08 160.861 200.146 154.538 200.146 150.741V147.805C200.146 144.431 200.08 142.526 199.961 140.079L196.65 139.523V137.01L210.886 132.79L211.999 133.465L211.813 142.606V150.768C211.813 154.564 211.88 160.888 211.999 163.639H199.961V163.613ZM214.449 160.491V163.613H197.325V160.491L202.609 159.26H208.569L214.462 160.491H214.449Z" fill="#1B1629"/>
<path d="M172.958 168.878L174.004 169.553L173.766 178.072V200.217C173.766 204.516 173.832 208.802 173.951 213.088H161.913C162.033 208.789 162.099 204.503 162.099 200.217V175.016L158.788 174.407V171.656L172.958 168.891V168.878ZM176.64 209.966V213.088H159.212V209.966L164.668 208.736H170.614L176.627 209.966H176.64Z" fill="#1B1629"/>
<path d="M193.458 168.878L194.505 169.553L194.266 178.072V200.217C194.266 204.516 194.332 208.802 194.452 213.088H182.427C182.546 208.789 182.612 204.503 182.612 200.217V175.016L179.302 174.407V171.656L193.458 168.891V168.878ZM197.14 209.966V213.088H179.712V209.966L185.168 208.736H191.128L197.14 209.966Z" fill="#1B1629"/>
<path d="M212.065 194.634C214.581 193.959 219.124 192.795 221.945 192.054V194.753C219.243 195.375 216.608 196.195 214.025 197.2C211.615 198.272 210.052 200.64 210.039 203.272C210.039 206.275 211.456 207.757 213.231 207.757C214.303 207.651 215.323 207.201 216.118 206.473L219.058 204.264L219.614 205.005L216.727 208.193C214.025 211.13 212.184 213.101 207.457 213.101C203.431 213.471 199.855 210.521 199.484 206.487C199.444 206.05 199.444 205.614 199.484 205.19C199.484 200.468 202.12 197.28 212.065 194.647M215.8 207.333V191.459C215.8 186.247 215.005 184.593 211.138 184.593C209.165 184.633 207.218 184.911 205.311 185.387L210.224 182.808V186.657C210.224 191.618 207.827 193.523 205.192 193.523C203.033 193.721 201.047 192.319 200.53 190.216C200.53 184.937 205.629 181.26 215.508 181.26C223.984 181.26 227.109 184.752 227.109 193.152V207.188C227.07 207.717 227.467 208.18 227.997 208.233C228.05 208.233 228.103 208.233 228.156 208.233C228.646 208.233 229.083 207.995 229.811 206.884L231.586 207.863C230.473 211.355 227.003 213.551 223.362 213.075C219.693 213.551 216.316 210.971 215.813 207.307" fill="#1B1629"/>
<path d="M233.413 207.81C233.201 204.701 235.559 202.002 238.684 201.791C241.809 201.579 244.498 203.934 244.71 207.056C244.921 210.164 242.564 212.863 239.439 213.075C239.306 213.075 239.187 213.075 239.055 213.075C236.101 213.233 233.572 210.958 233.413 207.995C233.413 207.929 233.413 207.863 233.413 207.796" fill="#6D44BC"/>
<path d="M75.3333 691C75.3333 692.473 76.5272 693.667 78 693.667C79.4728 693.667 80.6667 692.473 80.6667 691C80.6667 689.527 79.4728 688.333 78 688.333C76.5272 688.333 75.3333 689.527 75.3333 691ZM52 154.5H41V155.5H52V154.5ZM0.5 195V651H1.5V195H0.5ZM41 691.5H78V690.5H41V691.5ZM0.5 651C0.5 673.368 18.6325 691.5 41 691.5V690.5C19.1848 690.5 1.5 672.815 1.5 651H0.5ZM41 154.5C18.6325 154.5 0.5 172.632 0.5 195H1.5C1.5 173.185 19.1848 155.5 41 155.5V154.5Z" fill="#6D44BC"/>
<path d="M325.667 762C325.667 763.473 324.473 764.667 323 764.667C321.527 764.667 320.333 763.473 320.333 762C320.333 760.527 321.527 759.333 323 759.333C324.473 759.333 325.667 760.527 325.667 762ZM349 154.5H360V155.5H349V154.5ZM400.5 195V722H399.5V195H400.5ZM360 762.5H323V761.5H360V762.5ZM400.5 722C400.5 744.367 382.368 762.5 360 762.5V761.5C381.815 761.5 399.5 743.815 399.5 722H400.5ZM360 154.5C382.368 154.5 400.5 172.632 400.5 195H399.5C399.5 173.185 381.815 155.5 360 155.5V154.5Z" fill="#6D44BC"/>
<path d="M64.3333 537C64.3333 538.473 65.5272 539.667 67 539.667C68.4728 539.667 69.6667 538.473 69.6667 537C69.6667 535.527 68.4728 534.333 67 534.333C65.5272 534.333 64.3333 535.527 64.3333 537ZM1 537.5H67V536.5H1V537.5Z" fill="#6D44BC"/>
<path d="M383.667 613C383.667 611.527 382.473 610.333 381 610.333C379.527 610.333 378.333 611.527 378.333 613C378.333 614.473 379.527 615.667 381 615.667C382.473 615.667 383.667 614.473 383.667 613ZM401 612.5L381 612.5L381 613.5L401 613.5L401 612.5Z" fill="#6D44BC"/>
<path d="M308.667 463C308.667 461.527 307.473 460.333 306 460.333C304.527 460.333 303.333 461.527 303.333 463C303.333 464.473 304.527 465.667 306 465.667C307.473 465.667 308.667 464.473 308.667 463ZM400 462.5L306 462.5L306 463.5L400 463.5V462.5Z" fill="#6D44BC"/>
<path d="M56.3333 387C56.3333 388.473 57.5272 389.667 59 389.667C60.4728 389.667 61.6667 388.473 61.6667 387C61.6667 385.527 60.4728 384.333 59 384.333C57.5272 384.333 56.3333 385.527 56.3333 387ZM1 387.5H59V386.5H1V387.5Z" fill="#6D44BC"/>
</svg>
