<svg width="99" height="98" viewBox="0 0 99 98" fill="none" xmlns="http://www.w3.org/2000/svg">
<g clip-path="url(#clip0_1070_350)">
<path d="M53.5597 85.3676C52.3592 84.3109 51.1511 83.2574 49.9517 82.1981C48.0371 80.5063 46.0669 78.8725 44.2345 77.0963C42.366 75.2863 40.2861 73.9005 37.8109 73.0716C36.6549 72.6834 35.5492 72.1443 34.3062 71.626L30.3746 81.056L21.6443 77.4161L25.5871 67.9595C22.087 66.7815 19.0625 64.7488 15.2628 64.7111C11.1749 64.6719 7.09122 64.2315 3.00418 63.9647C2.69536 63.9453 2.38785 63.9077 1.98305 63.8701C2.10103 63.5194 2.17791 63.2297 2.2911 62.9582C4.57327 57.4769 6.87148 52.0022 9.12692 46.5098C9.41166 45.8193 9.74328 45.5733 10.5132 45.6381C13.3032 45.8703 16.1023 45.9751 18.8887 46.2307C19.8013 46.3145 20.1576 46.0319 20.4206 45.198C22.3732 39.0169 25.2977 33.3347 29.3202 28.2322C33.3893 23.071 38.2837 18.835 44.0266 15.6495C47.1989 13.8884 50.553 12.4438 53.8261 10.8623C54.0105 10.7736 54.2133 10.7238 54.2273 10.7203C54.9927 12.3765 55.8619 13.9418 56.4589 15.6029C59.2357 23.3246 60.6015 31.2548 59.8436 39.4773C59.218 46.2835 57.1778 52.6593 54.1279 58.7328C53.3962 60.1867 53.3546 60.1662 54.5927 61.2605C56.6126 63.0461 58.6418 64.8169 60.6279 66.6385C60.8844 66.8735 61.1149 67.457 61.0022 67.7349C58.6205 73.5528 56.1854 79.3484 53.7582 85.1473C53.7338 85.2059 53.6682 85.2503 53.5586 85.3702L53.5597 85.3676ZM35.4987 68.7209C37.4687 69.5423 39.2977 70.258 41.083 71.071C41.8027 71.3992 42.2053 71.2765 42.6333 70.6489C44.908 67.3077 47.3363 64.0649 49.474 60.6384C52.2222 56.2293 54.1671 51.4291 55.4415 46.393C57.3948 38.6751 57.4147 30.9134 55.4675 23.1813C54.754 20.347 53.801 17.5752 52.9824 14.8501C52.6676 14.8376 52.5905 14.8117 52.5327 14.8376C44.6251 18.2703 37.6196 22.9414 32.1634 29.6988C24.6301 39.03 21.5031 50.0295 20.1795 61.6934C20.1511 61.9347 20.3079 62.3562 20.4913 62.4358C22.5367 63.3323 24.6059 64.1794 26.7871 65.0888L30.0607 57.2371L38.7749 60.8703L35.5002 68.7247L35.4987 68.7209ZM18.9854 49.3703C16.8023 49.2256 14.6348 49.1186 12.4787 48.9163C11.733 48.846 11.4473 49.1174 11.1863 49.7584C9.77757 53.2201 8.32338 56.6628 6.8879 60.1134C6.77471 60.3848 6.70162 60.673 6.58232 61.0419C10.0969 61.267 13.5035 61.4876 16.8162 61.7002C17.551 57.5295 18.261 53.486 18.9865 49.3677L18.9854 49.3703ZM52.4237 80.1826C54.0904 76.1849 55.6964 72.3555 57.2665 68.5144C57.3553 68.3014 57.2684 67.8778 57.1059 67.7257C55.3864 66.1527 53.6342 64.6131 51.9418 63.1107C49.5078 66.548 47.1236 69.9185 44.7027 73.3393C47.2305 75.5774 49.7615 77.8229 52.4237 80.1826ZM31.8262 61.3411L25.8195 75.7483L28.5727 76.8962L34.5795 62.4891L31.8262 61.3411Z" fill="#FF93F4"/>
<path d="M51.4445 42.1241C49.5376 46.8183 44.107 49.0968 39.3467 47.1934C34.5812 45.2877 32.2664 39.8143 34.2082 35.044C36.13 30.3216 41.6965 28.0185 46.4062 29.9978C51.108 31.9737 53.3621 37.3968 51.4419 42.123L51.4445 42.1241ZM48.4692 41.0648C49.8502 37.9633 48.4136 34.312 45.2615 32.9165C42.2152 31.5684 38.5461 33.016 37.1851 36.1071C35.822 39.2035 37.2171 42.8188 40.3077 44.1886C43.4748 45.5934 47.0661 44.2195 48.4719 41.0659L48.4692 41.0648Z" fill="#FF93F4"/>
<path d="M48.4238 21.2536L51.2092 22.4149L49.235 27.1499L46.4497 25.9886L48.4238 21.2536Z" fill="#FF93F4"/>
<path d="M39.1834 51.2585C39.1005 51.5176 39.0363 51.7845 38.9331 52.032C38.4069 53.3092 37.8727 54.583 37.3101 55.9324L34.4873 54.7555L36.4248 50.1084L39.1808 51.2574L39.1834 51.2585Z" fill="#FF93F4"/>
</g>
<circle cx="78.1578" cy="56.1368" r="8.01063" transform="rotate(22.6326 78.1578 56.1368)" fill="white"/>
<defs>
<clipPath id="clip0_1070_350">
<rect width="56.0744" height="74.0983" fill="white" transform="translate(28.5146) rotate(22.6326)"/>
</clipPath>
</defs>
</svg>
