<svg width="29" height="29" viewBox="0 0 29 29" fill="none" xmlns="http://www.w3.org/2000/svg">
<g clip-path="url(#clip0_83_757)">
<path d="M14.5 29C22.5081 29 29 22.5081 29 14.5C29 6.49187 22.5081 0 14.5 0C6.49187 0 0 6.49187 0 14.5C0 22.5081 6.49187 29 14.5 29Z" fill="#6D44BC"/>
<path d="M12.484 21.2645C11.8966 21.2645 11.3391 21.0057 10.9608 20.5577L6.93389 15.7841C6.22706 14.9428 6.33159 13.6885 7.17282 12.9767C8.01405 12.2698 9.26842 12.3744 9.98023 13.2156L12.484 16.1823L19.0147 8.44198C19.7216 7.60075 20.9809 7.49622 21.8221 8.20305C22.6634 8.90988 22.7679 10.1692 22.0611 11.0105L14.0122 20.5577C13.6339 21.0057 13.0764 21.2645 12.489 21.2645H12.484Z" fill="white"/>
</g>
<defs>
<clipPath id="clip0_83_757">
<rect width="29" height="29" fill="white"/>
</clipPath>
</defs>
</svg>
