<svg width="291" height="199" viewBox="0 0 291 199" fill="none" xmlns="http://www.w3.org/2000/svg">
<g clip-path="url(#clip0_48_74)">
<path d="M283.04 0.0900066C283.04 0.0900066 283.02 0.0300066 282.88 0.0300066C282.04 -0.0899934 280.1 0.130007 278.38 1.84001C278.35 1.87001 278.24 2.00001 278.24 2.05001C278.26 2.10001 278.67 3.08001 279.19 4.53001C279.72 5.98001 280.33 7.93001 280.83 9.90001C281.85 13.83 282.26 17.87 282.26 17.87C282.26 17.87 282.47 18.49 282.78 19.38C283.09 20.25 283.49 21.37 283.93 22.3C285.14 25.48 286.25 24.22 286.79 22.11C286.85 22.22 287.04 20.97 287.18 19.68C287.31 18.39 287.38 17.06 287.38 17.06C287.38 17.06 286.93 12.75 285.83 8.52001C285.29 6.40001 284.63 4.31001 284.07 2.76001C283.51 1.20001 283.08 0.160007 283.05 0.110007L283.04 0.0900066Z" fill="#1B1629"/>
<path d="M290.37 45.05C290.37 45.05 290.37 45 290.25 44.94C289.54 44.56 287.7 43.86 285.41 44.55C285.37 44.56 285.22 44.63 285.19 44.66C285.19 44.71 285.1 45.72 285.05 47.2C284.99 48.68 284.97 50.63 285 52.55C285.03 54.47 285.1 56.36 285.16 57.77C285.22 59.18 285.25 60.11 285.25 60.11C285.25 60.11 285.88 62.52 286.71 64.19C287.88 67.05 289 65.89 289.57 64.05C289.7 64.24 290.4 59.69 290.4 59.69C290.4 59.69 290.23 55.99 290.17 52.35C290.14 50.53 290.17 48.72 290.22 47.36C290.28 46 290.35 45.08 290.35 45.03L290.37 45.05Z" fill="#1B1629"/>
<path d="M288.8 88.55C288.8 88.55 288.8 88.55 288.72 88.46C288.48 88.19 288.15 87.6 287.76 86.83C287.34 86.11 286.87 85.15 285.48 84.85C285.43 84.84 285.21 84.83 285.14 84.87C285.11 84.9 284.86 85.19 284.43 85.67C284.09 86.12 283.63 86.75 283.19 87.45C282.29 88.87 281.28 90.68 280.28 92.47C279.28 94.26 278.29 96 277.53 97.29C276.76 98.57 276.24 99.4 276.24 99.4C276.24 99.4 275.33 101.85 274.88 103.75C273.87 106.84 275.46 106.68 277.22 105.41C277.19 105.53 278.13 104.7 279 103.8C279.89 102.91 280.74 101.95 280.74 101.95C280.74 101.95 281.29 101.07 282.08 99.75C282.87 98.43 283.87 96.65 284.86 94.89C285.85 93.13 286.83 91.39 287.59 90.2C287.97 89.59 288.29 89.17 288.5 88.88C288.69 88.67 288.8 88.53 288.81 88.53L288.8 88.55Z" fill="#1B1629"/>
<path d="M262.95 123.12C262.95 123.12 263 123.09 262.99 122.95C262.96 122.11 262.46 120.19 260.44 118.82C260.4 118.8 260.25 118.72 260.2 118.72C260.15 118.75 259.18 119.36 257.75 120.26C256.32 121.15 254.44 122.32 252.55 123.44C250.66 124.56 248.77 125.64 247.34 126.41C245.9 127.17 244.95 127.67 244.95 127.67C244.95 127.67 242.69 129.41 241.19 130.94C238.53 133.29 240.17 133.84 242.42 133.53C242.34 133.63 243.62 133.33 244.92 132.96C246.22 132.59 247.52 132.16 247.52 132.16C247.52 132.16 248.52 131.66 249.99 130.86C251.46 130.07 253.4 128.97 255.31 127.83C257.22 126.7 259.11 125.53 260.53 124.64C261.95 123.75 262.92 123.15 262.97 123.12H262.95Z" fill="#1B1629"/>
<path d="M217.52 145.91C217.52 145.91 217.58 145.91 217.62 145.77C217.94 145 218.36 143.06 217.16 140.94C217.14 140.9 217.04 140.76 216.99 140.75C216.93 140.75 215.81 140.88 214.16 141.06C212.52 141.24 210.39 141.48 208.27 141.65C206.15 141.83 204.06 141.93 202.51 141.96C200.95 141.98 199.94 141.94 199.94 141.94C199.94 141.94 199.29 142.06 198.36 142.23C197.45 142.4 196.29 142.62 195.3 142.86C193.64 143.14 193.01 143.55 193.07 144.09C193.13 144.6 193.9 145.25 194.93 145.7C194.81 145.74 196.06 146.19 197.37 146.52C198.02 146.69 198.69 146.83 199.19 146.94C199.69 147.04 200.03 147.1 200.03 147.1C200.03 147.1 201.15 147.14 202.8 147.11C204.46 147.08 206.65 146.97 208.82 146.78C210.99 146.6 213.15 146.36 214.77 146.19C216.37 146.02 217.46 145.9 217.52 145.89V145.91Z" fill="#1B1629"/>
<path d="M172.11 142.62C172.11 142.62 172.16 142.62 172.2 142.49C172.54 141.73 172.69 139.84 171.87 137.65C171.86 137.61 171.79 137.47 171.77 137.45C171.73 137.45 171.04 137.52 170.01 137.45C168.98 137.4 167.62 137.16 166.26 136.72C164.9 136.29 163.55 135.69 162.55 135.19C161.54 134.68 160.87 134.31 160.87 134.31C160.87 134.31 160.37 134.19 159.66 134.05C158.95 133.91 158.03 133.75 157.21 133.71C154.53 133.37 154.76 134.86 155.77 136.19C155.67 136.19 156.34 136.89 157.05 137.57C157.76 138.25 158.54 138.93 158.54 138.93C158.54 138.93 159.26 139.33 160.39 139.9C161.52 140.46 163.1 141.16 164.79 141.69C166.48 142.23 168.3 142.55 169.7 142.62C171.1 142.71 172.06 142.62 172.11 142.62Z" fill="#1B1629"/>
<path d="M139.31 124.13C139.31 124.13 139.35 124.16 139.47 124.11C140.23 123.83 141.82 122.75 142.88 120.66C142.9 120.62 142.96 120.48 142.96 120.44C142.93 120.41 142.37 119.87 141.57 119.01C140.77 118.15 139.75 116.96 138.74 115.72C137.72 114.46 136.7 113.2 135.94 112.26C135.15 111.31 134.63 110.68 134.63 110.68C134.63 110.68 132.84 109.36 131.24 108.79C128.7 107.67 128.59 109.23 129.15 110.75C129.05 110.73 129.49 111.56 129.91 112.42C130.35 113.28 130.78 114.13 130.78 114.13C130.78 114.13 132.78 116.59 134.79 119.07C135.82 120.33 136.9 121.6 137.77 122.54C138.64 123.48 139.27 124.1 139.31 124.14V124.13Z" fill="#1B1629"/>
<path d="M116.59 82.46C116.59 82.46 116.62 82.5 116.75 82.47C117.56 82.39 119.31 81.66 120.92 79.99C120.95 79.96 121.05 79.84 121.06 79.81C121.04 79.78 120.7 79.23 120.29 78.36C119.87 77.49 119.42 76.26 119.09 74.98C118.4 72.42 118.24 69.68 118.24 69.68C118.24 69.68 117.59 67.95 116.81 66.65C115.73 64.44 114.57 65.23 113.94 66.7C113.88 66.62 113.64 67.49 113.44 68.39C113.24 69.29 113.1 70.24 113.1 70.24C113.1 70.24 113.29 73.3 114.11 76.37C114.51 77.9 115.06 79.43 115.6 80.55C116.12 81.68 116.58 82.41 116.6 82.45L116.59 82.46Z" fill="#1B1629"/>
<path d="M127.96 41.2C127.96 41.2 127.94 41.24 128.02 41.34C128.47 42 129.93 43.22 132.11 43.95C132.15 43.96 132.3 44 132.33 44C132.35 43.97 132.71 43.43 133.24 42.62C133.81 41.8 134.56 40.72 135.31 39.65C136.08 38.58 136.84 37.52 137.41 36.72L138.35 35.46L138.37 35.4V35.34V35.32L138.27 35.23L137.83 34.85C137.61 34.68 137.4 34.49 137.18 34.29C137.07 34.19 136.97 34.09 136.86 33.98C136.78 33.92 136.72 33.87 136.66 33.8L136.52 33.63C136.52 33.63 136.4 33.63 136.36 33.58C135.93 33.38 135.5 33.12 134.62 32.62L134.47 32.54L134.4 32.5H134.41V32.53C134.41 32.53 134.41 32.57 134.41 32.6C134.41 32.7 134.37 32.84 134.35 32.98C134.24 33.57 134.1 34.36 134.09 35.07C133.84 37.37 135.24 37.36 136.48 36.66C136.48 36.75 137.12 36.26 137.76 35.73C137.92 35.59 138.08 35.45 138.23 35.32C138.31 35.24 138.39 35.17 138.46 35.1C138.5 35.05 138.54 35.02 138.59 34.96C138.62 34.92 138.63 34.91 138.68 34.84L138.76 34.7L138.78 34.67V34.65C138.82 34.58 138.85 34.52 138.87 34.45C138.97 34.17 139.02 33.85 139.01 33.56V33.4C139.01 33.4 138.98 33.25 138.96 33.15C138.91 32.94 138.84 32.65 138.59 32.27C138.36 31.9 137.85 31.45 137.25 31.28C136.66 31.1 136.14 31.18 135.82 31.28C135.49 31.38 135.3 31.5 135.16 31.59L135.08 31.65C135.01 31.7 134.95 31.75 134.89 31.8L134.69 31.98L134.57 32.09L134.45 32.2L134.29 32.33L134.17 32.43C134.17 32.43 133.77 32.97 133.16 33.78C132.58 34.58 131.81 35.65 131.04 36.72C129.51 38.86 128 41.1 127.95 41.21L127.96 41.2Z" fill="#1B1629"/>
<path d="M169.69 35.16C169.69 35.16 169.64 35.14 169.54 35.23C168.89 35.75 167.82 37.35 167.7 39.72C167.7 39.76 167.7 39.92 167.72 39.96C167.76 39.98 168.55 40.28 169.65 40.86C170.76 41.43 172.16 42.32 173.46 43.36C176.09 45.42 178.22 48.12 178.22 48.12C178.22 48.12 178.67 48.45 179.32 48.92C179.96 49.38 180.8 49.97 181.57 50.43C184 52.13 184.41 50.65 183.92 48.78C184.02 48.83 183.62 47.79 183.14 46.76C182.66 45.72 182.09 44.69 182.09 44.69C182.09 44.69 179.72 41.68 176.61 39.25C175.08 38.02 173.39 36.96 172.04 36.26C170.7 35.56 169.74 35.18 169.68 35.16H169.69Z" fill="#1B1629"/>
<path d="M202.68 73.41C202.68 73.41 202.68 73.37 202.57 73.31C202.23 73.12 201.63 72.82 200.82 72.57C200.01 72.33 199 72.14 197.82 72.33C197.78 72.33 197.62 72.38 197.59 72.41C197.58 72.46 197.39 73.42 197.26 74.73C197.13 76.04 197.05 77.73 197.03 79.4C196.98 82.73 197.17 85.99 197.17 85.99C197.17 85.99 197.81 88.1 198.73 89.51C200.05 91.92 201.1 90.78 201.58 89.23C201.64 89.3 201.81 88.38 201.98 87.44L202.32 85.55C202.32 85.55 202.15 82.46 202.2 79.38C202.22 77.84 202.3 76.32 202.41 75.21C202.47 74.66 202.53 74.2 202.58 73.89C202.62 73.57 202.67 73.41 202.67 73.39L202.68 73.41Z" fill="#1B1629"/>
<path d="M201.15 120.06C201.15 120.06 201.19 120.04 201.15 119.91C200.98 119.14 200.38 117.29 198.56 115.81C198.53 115.78 198.39 115.69 198.35 115.69C198.31 115.72 197.58 116.18 196.51 116.92C195.45 117.67 194.08 118.73 192.8 119.93C191.51 121.13 190.34 122.49 189.56 123.6C188.77 124.7 188.34 125.51 188.34 125.51C188.34 125.51 188.14 126.09 188.02 126.91C187.88 127.72 187.83 128.76 187.97 129.63C188.11 131.06 188.61 131.52 189.12 131.51C189.65 131.5 190.2 131.02 190.71 130.46C190.74 130.54 191.23 129.83 191.76 129.17C192.31 128.52 192.9 127.92 192.9 127.92C192.9 127.92 193.22 127.33 193.82 126.51C194.42 125.68 195.33 124.63 196.38 123.66C197.42 122.69 198.6 121.79 199.51 121.14C200.44 120.5 201.09 120.08 201.13 120.06H201.15Z" fill="#1B1629"/>
<path d="M160.48 162.25C160.48 162.25 160.54 162.21 160.52 162.07C160.5 161.21 160.04 159.28 157.97 157.94C157.93 157.92 157.78 157.84 157.73 157.84C157.68 157.87 156.65 158.52 155.14 159.46C153.63 160.4 151.64 161.63 149.65 162.82C147.66 164.01 145.65 165.16 144.14 165.98C142.63 166.81 141.62 167.33 141.62 167.33C141.62 167.33 139.23 169.16 137.64 170.74C134.82 173.17 136.52 173.69 138.88 173.32C138.79 173.42 140.14 173.08 141.51 172.68C142.87 172.27 144.24 171.8 144.24 171.8C144.24 171.8 145.29 171.26 146.83 170.41C148.38 169.57 150.41 168.4 152.42 167.2C154.43 166 156.42 164.77 157.93 163.84C159.43 162.9 160.45 162.27 160.5 162.23L160.48 162.25Z" fill="#1B1629"/>
<path d="M120.7 176.91C120.7 176.91 120.76 176.89 120.77 176.75C120.94 175.91 120.72 173.99 119.15 172.18C119.12 172.15 119 172.03 118.96 172.02C118.91 172.04 118.03 172.37 116.66 172.73C115.3 173.09 113.45 173.45 111.58 173.62C109.71 173.81 107.81 173.82 106.4 173.77C104.98 173.71 104.04 173.62 104.04 173.62C104.04 173.62 103.43 173.7 102.55 173.82C101.69 173.94 100.58 174.11 99.6301 174.33C96.4401 174.79 97.3001 176.15 99.1601 177.16C99.0501 177.19 100.17 177.67 101.36 178.06C102.55 178.46 103.79 178.79 103.79 178.79C103.79 178.79 104.83 178.89 106.4 178.95C107.97 179 110.08 178.98 112.19 178.76C114.3 178.56 116.42 178.16 118 177.73C119.58 177.32 120.64 176.93 120.69 176.9L120.7 176.91Z" fill="#1B1629"/>
<path d="M75.84 173.88C75.84 173.88 75.88 173.88 75.95 173.78C76.4 173.13 77.24 171.39 77.05 169.06C77.05 169.02 77.02 168.86 76.99 168.83C76.82 168.79 64.66 166.02 64.66 166.02C64.66 166.02 62.56 166.08 60.99 166.53C58.39 167.06 59.07 168.4 60.39 169.34C60.21 169.42 63.67 171.1 63.67 171.1C63.67 171.1 75.66 173.85 75.83 173.89L75.84 173.88Z" fill="#1B1629"/>
<path d="M31.31 172.79C31.31 172.79 31.36 172.77 31.37 172.63C31.44 171.81 31.34 169.83 29.63 168.1C29.6 168.07 29.46 167.96 29.42 167.96C29.36 167.98 28.29 168.39 26.78 169.08C25.26 169.76 23.31 170.74 21.42 171.77C17.63 173.83 14.06 176.06 14.06 176.06C14.06 176.06 12 177.95 10.8 179.63C8.63999 182.29 10.35 182.57 12.37 182.03C12.31 182.13 13.46 181.7 14.62 181.26C15.78 180.81 16.95 180.35 16.95 180.35C16.95 180.35 20.42 178.19 23.98 176.27C25.76 175.31 27.56 174.41 28.94 173.8C30.32 173.18 31.27 172.81 31.32 172.79H31.31Z" fill="#1B1629"/>
<path d="M20.99 153.36C21.02 153.23 21.03 153.19 20.95 152.99C20.53 151.63 19.07 149.69 16.26 151.75C16.21 151.79 16.01 151.97 15.96 152.08C15.27 154.76 14.44 157.42 13.49 160.04C10.74 167.6 7.03002 174.94 3.77002 182.63L1.67002 187.8L0.540024 190.65L0.260024 191.36L0.120024 191.72L0.0500243 191.9L0.0100243 191.99C0.0100243 191.99 -0.0199757 192.05 0.0300243 192.03L1.49002 191.75L4.40002 191.19C5.31002 191.04 6.51002 190.7 7.51002 190.52L9.71002 190.2L11.14 190.1C14.95 189.85 18.82 190.29 22.62 191.24C24.1 191.59 25.56 192.04 27.01 192.51L28.24 192.85C29.01 193.05 30.09 193.37 31.33 193.75C33.81 194.52 36.94 195.62 39.56 196.52C43.95 198.18 45.44 198.42 45.26 197.73C45.07 197.06 43.18 195.51 40.7 193.89C40.99 193.99 37.99 192.13 34.74 190.47C33.94 190.04 33.11 189.64 32.32 189.28C31.54 188.9 30.8 188.56 30.15 188.3L28.58 187.63L27.97 187.4L25.92 186.76L23.83 186.21C19.64 185.15 15.22 184.64 10.8 184.92L9.14002 185.03L8.29002 185.15L8.51002 184.63C11.68 177.15 15.44 169.74 18.34 161.79C19.34 159.03 20.23 156.2 20.97 153.33L20.99 153.36Z" fill="#1B1629"/>
</g>
<defs>
<clipPath id="clip0_48_74">
<rect width="290.41" height="198.09" fill="white"/>
</clipPath>
</defs>
</svg>
